<?xml version="1.0" encoding="UTF-8"?>
<!DOCTYPE svg PUBLIC "-//W3C//DTD SVG 1.1//EN" "http://www.w3.org/Graphics/SVG/1.1/DTD/svg11.dtd">
<svg xmlns="http://www.w3.org/2000/svg" version="1.1" width="1280px" height="1280px" style="shape-rendering:geometricPrecision; text-rendering:geometricPrecision; image-rendering:optimizeQuality; fill-rule:evenodd; clip-rule:evenodd" xmlns:xlink="http://www.w3.org/1999/xlink">
<g><path fill="#ff0200" d="M 620.5,247.5 C 621.167,247.5 621.833,247.5 622.5,247.5C 622.833,247.5 623.167,247.5 623.5,247.5C 623.833,247.5 624.167,247.5 624.5,247.5C 629.931,251.083 635.265,254.916 640.5,259C 645.035,263.703 649.702,268.203 654.5,272.5C 655.793,274.296 657.293,275.963 659,277.5C 659.938,275.512 660.772,273.512 661.5,271.5C 663.063,270.055 664.396,268.389 665.5,266.5C 665.833,266.5 666.167,266.5 666.5,266.5C 667.167,266.5 667.833,266.5 668.5,266.5C 669.6,267.605 670.267,268.938 670.5,270.5C 670.038,275.608 669.038,280.608 667.5,285.5C 669.698,287.098 672.031,288.431 674.5,289.5C 674.721,292.279 674.388,294.946 673.5,297.5C 671.087,295.949 668.421,295.283 665.5,295.5C 665.167,297.5 664.833,299.5 664.5,301.5C 659.314,303.843 655.148,307.509 652,312.5C 650.954,318.408 653.12,322.741 658.5,325.5C 657.992,328.176 657.825,330.843 658,333.5C 660.352,331.97 662.519,330.303 664.5,328.5C 665.5,328.5 666.5,328.5 667.5,328.5C 656.713,375.268 648.046,422.435 641.5,470C 641.523,473.073 642.523,475.74 644.5,478C 647.308,478.92 649.475,478.087 651,475.5C 654.627,463.659 657.627,451.659 660,439.5C 659.834,452.487 659.667,465.487 659.5,478.5C 658.167,490.164 656.834,501.831 655.5,513.5C 654.532,515.607 654.198,517.941 654.5,520.5C 652.789,524.575 650.289,525.241 647,522.5C 647.278,518.861 647.278,515.194 647,511.5C 645.882,518.211 644.548,524.877 643,531.5C 641,534.167 639,534.167 637,531.5C 636.631,528.123 636.631,524.79 637,521.5C 635.981,522.687 634.814,523.687 633.5,524.5C 631.959,531.06 631.126,537.726 631,544.5C 627.813,547.411 625.313,546.911 623.5,543C 624.593,535.528 625.093,528.028 625,520.5C 622.119,522.028 619.786,521.362 618,518.5C 616.437,529.464 615.27,540.464 614.5,551.5C 622.174,551.821 629.841,552.321 637.5,553C 640.167,555 640.167,557 637.5,559C 630.65,559.645 623.817,559.478 617,558.5C 614.245,558.41 611.745,559.076 609.5,560.5C 607.792,560.297 606.459,559.464 605.5,558C 580.188,556.501 554.854,555.667 529.5,555.5C 527.881,559.346 526.381,563.346 525,567.5C 520.95,584.75 517.283,602.083 514,619.5C 508.815,670.07 504.982,720.736 502.5,771.5C 500.792,792.445 499.626,813.445 499,834.5C 501.997,829.063 504.497,829.23 506.5,835C 503.49,846.05 500.99,857.216 499,868.5C 497.052,905.514 498.052,942.514 502,979.5C 503.667,978.833 505.333,978.167 507,977.5C 508,961.833 509,946.167 510,930.5C 510.322,879.833 510.155,829.166 509.5,778.5C 509.369,777.761 509.536,777.094 510,776.5C 514.077,781.73 517.91,787.064 521.5,792.5C 522.167,818.155 522.334,843.821 522,869.5C 523.055,844.51 523.555,819.51 523.5,794.5C 526.167,796.5 528.5,798.833 530.5,801.5C 530.336,804.187 530.503,806.854 531,809.5C 531.497,807.19 531.663,804.857 531.5,802.5C 533.823,805.126 536.157,807.793 538.5,810.5C 532.027,865.346 530.027,920.346 532.5,975.5C 536.119,974.756 539.785,974.423 543.5,974.5C 542.478,959.514 542.311,944.514 543,929.5C 544.11,927.963 545.61,927.297 547.5,927.5C 547.667,914.496 547.5,901.496 547,888.5C 544.936,863.814 543.436,839.147 542.5,814.5C 545.5,816.833 548.167,819.5 550.5,822.5C 552.142,845.82 553.642,869.154 555,892.5C 555.532,876.967 558.532,861.967 564,847.5C 567.491,844.554 569.658,845.388 570.5,850C 566.666,860.838 564.166,872.005 563,883.5C 561.137,910.519 560.137,937.519 560,964.5C 564.032,957.813 568.032,951.146 572,944.5C 574.58,925.53 576.913,906.53 579,887.5C 580.427,875.835 580.593,864.168 579.5,852.5C 579.286,850.058 580.286,848.392 582.5,847.5C 584.404,847.738 585.738,848.738 586.5,850.5C 587.11,855.118 587.443,859.785 587.5,864.5C 586.855,875.851 586.355,887.184 586,898.5C 587.845,890.785 589.845,883.119 592,875.5C 594.367,872.068 597.034,871.735 600,874.5C 599.851,887.513 599.518,900.513 599,913.5C 601.719,900.979 603.386,888.313 604,875.5C 605.667,872.833 607.333,872.833 609,875.5C 609.333,877.833 609.667,880.167 610,882.5C 611.351,880.981 612.851,879.648 614.5,878.5C 615.478,878.977 616.311,879.643 617,880.5C 617.183,886.228 616.85,891.894 616,897.5C 617.117,895.876 618.617,894.876 620.5,894.5C 625.649,894.157 628.483,896.49 629,901.5C 630.836,897.982 632.67,894.482 634.5,891C 637.308,890.08 639.475,890.913 641,893.5C 641.229,890.542 642.396,888.042 644.5,886C 646.701,885.175 648.534,885.675 650,887.5C 650.359,893.523 650.859,899.523 651.5,905.5C 651.5,905.833 651.5,906.167 651.5,906.5C 650.833,906.5 650.5,906.833 650.5,907.5C 649.068,920.786 648.235,934.119 648,947.5C 646.833,948.667 645.667,949.833 644.5,951C 645.352,953.417 646.019,955.917 646.5,958.5C 644.927,963.412 644.427,968.412 645,973.5C 645.816,974.823 646.983,975.489 648.5,975.5C 647.564,981.6 645.564,987.266 642.5,992.5C 640.278,992.822 638.444,992.155 637,990.5C 636.755,986.147 636.755,981.813 637,977.5C 635.269,979.617 633.102,981.117 630.5,982C 625.722,982.293 621.055,982.46 616.5,982.5C 614.976,985.074 613.642,987.741 612.5,990.5C 611.292,991.234 609.959,991.567 608.5,991.5C 608.167,990.5 607.5,989.833 606.5,989.5C 606.5,987.833 606.5,986.167 606.5,984.5C 596.533,986.439 586.533,988.273 576.5,990C 574.313,993.062 573.313,996.562 573.5,1000.5C 572.596,1001.21 572.263,1002.21 572.5,1003.5C 571.5,1003.83 570.833,1004.5 570.5,1005.5C 569.5,1005.5 568.5,1005.5 567.5,1005.5C 567.167,1004.5 566.5,1003.83 565.5,1003.5C 565.5,1003.17 565.5,1002.83 565.5,1002.5C 565.211,998.894 565.544,995.394 566.5,992C 563.918,992.255 561.252,992.422 558.5,992.5C 558.254,998.559 558.587,1004.56 559.5,1010.5C 559.5,1010.83 559.5,1011.17 559.5,1011.5C 559.5,1012.5 559.5,1013.5 559.5,1014.5C 559.167,1014.5 558.833,1014.5 558.5,1014.5C 558.167,1013.17 557.833,1013.17 557.5,1014.5C 557.167,1014.5 556.833,1014.5 556.5,1014.5C 554.938,1014.27 553.605,1013.6 552.5,1012.5C 552.5,1011.83 552.167,1011.5 551.5,1011.5C 551.666,1005.49 551.499,999.491 551,993.5C 549.883,994.949 549.216,996.616 549,998.5C 548.184,999.823 547.017,1000.49 545.5,1000.5C 545.167,1000.5 544.833,1000.5 544.5,1000.5C 544.5,999.833 544.167,999.5 543.5,999.5C 542.852,997.914 542.352,996.247 542,994.5C 539.26,995.282 536.426,995.782 533.5,996C 532.556,998.719 532.223,1001.55 532.5,1004.5C 531.833,1004.5 531.5,1004.83 531.5,1005.5C 530.833,1005.5 530.5,1005.83 530.5,1006.5C 529.041,1006.57 527.708,1006.23 526.5,1005.5C 525.597,1002.61 525.264,999.609 525.5,996.5C 522.545,997.159 519.545,997.492 516.5,997.5C 516.546,1004.19 516.212,1010.86 515.5,1017.5C 514.833,1017.5 514.5,1017.83 514.5,1018.5C 513.833,1018.5 513.5,1018.83 513.5,1019.5C 512.5,1019.5 511.5,1019.5 510.5,1019.5C 510.167,1018.5 509.5,1017.83 508.5,1017.5C 508.5,1017.17 508.5,1016.83 508.5,1016.5C 509.014,1010.18 509.347,1003.85 509.5,997.5C 505.209,997.787 501.042,997.787 497,997.5C 496.703,1000.29 495.203,1001.96 492.5,1002.5C 489.218,1001.51 485.885,1000.85 482.5,1000.5C 482.5,1005.5 482.5,1010.5 482.5,1015.5C 482.5,1015.83 482.5,1016.17 482.5,1016.5C 481.833,1016.5 481.5,1016.83 481.5,1017.5C 479.715,1017.93 478.715,1019.09 478.5,1021C 477.945,1026.3 476.945,1031.46 475.5,1036.5C 474.292,1037.23 472.959,1037.57 471.5,1037.5C 471.167,1036.5 470.5,1035.83 469.5,1035.5C 469.5,1035.17 469.5,1034.83 469.5,1034.5C 470.916,1022.84 472.249,1011.18 473.5,999.5C 464.134,998.991 454.8,998.324 445.5,997.5C 444.145,998.188 443.145,999.188 442.5,1000.5C 442.167,1000.5 441.833,1000.5 441.5,1000.5C 441.167,1000.5 440.833,1000.5 440.5,1000.5C 440.167,1000.5 439.833,1000.5 439.5,1000.5C 437.609,997.828 434.942,996.828 431.5,997.5C 431.508,1000.54 431.841,1003.54 432.5,1006.5C 432.5,1006.83 432.5,1007.17 432.5,1007.5C 431.833,1007.5 431.5,1007.83 431.5,1008.5C 430.833,1008.5 430.5,1008.83 430.5,1009.5C 430.167,1009.5 429.833,1009.5 429.5,1009.5C 427.938,1009.27 426.605,1008.6 425.5,1007.5C 425.026,1004.31 424.026,1001.31 422.5,998.5C 415.226,999.606 407.893,1000.27 400.5,1000.5C 400.5,1005.83 400.5,1011.17 400.5,1016.5C 400.5,1016.83 400.5,1017.17 400.5,1017.5C 399.5,1017.83 398.833,1018.5 398.5,1019.5C 397.5,1019.5 396.5,1019.5 395.5,1019.5C 395.167,1018.5 394.5,1017.83 393.5,1017.5C 393.5,1017.17 393.5,1016.83 393.5,1016.5C 393.5,1011.5 393.5,1006.5 393.5,1001.5C 389.131,1001.47 384.798,1001.8 380.5,1002.5C 380.229,1006.6 378.895,1010.27 376.5,1013.5C 376.167,1013.5 375.833,1013.5 375.5,1013.5C 374.833,1013.5 374.167,1013.5 373.5,1013.5C 373.5,1012.83 373.167,1012.5 372.5,1012.5C 372.5,1011.83 372.167,1011.5 371.5,1011.5C 371.877,1008.48 372.044,1005.48 372,1002.5C 370.263,1005.53 368.097,1006.03 365.5,1004C 359.509,1003.5 353.509,1003.33 347.5,1003.5C 347.675,1005.62 347.341,1007.62 346.5,1009.5C 344.833,1010.83 343.167,1010.83 341.5,1009.5C 340.659,1007.62 340.325,1005.62 340.5,1003.5C 333.159,1003.33 325.826,1003.5 318.5,1004C 316.833,1006 315.167,1006 313.5,1004C 308.133,1003.6 302.799,1002.93 297.5,1002C 295.845,1000.56 295.178,998.722 295.5,996.5C 296.167,996.5 296.5,996.167 296.5,995.5C 297.995,995.011 299.329,994.345 300.5,993.5C 304.198,993.448 307.865,993.114 311.5,992.5C 312.853,959.749 315.353,927.083 319,894.5C 317.968,860.808 318.635,827.141 321,793.5C 324.695,753.273 329.695,713.273 336,673.5C 314.409,715.018 292.575,756.352 270.5,797.5C 269.833,797.5 269.5,797.833 269.5,798.5C 269.167,798.5 268.833,798.5 268.5,798.5C 267.833,798.5 267.167,798.5 266.5,798.5C 266.167,797.5 265.5,796.833 264.5,796.5C 264.5,795.833 264.5,795.167 264.5,794.5C 264.5,794.167 264.5,793.833 264.5,793.5C 264.5,793.167 264.5,792.833 264.5,792.5C 289.892,745.387 315.059,698.053 340,650.5C 347.403,607.413 355.237,564.413 363.5,521.5C 363.5,521.167 363.5,520.833 363.5,520.5C 364.167,520.5 364.5,520.167 364.5,519.5C 365.82,518.058 367.486,517.392 369.5,517.5C 369.5,518.167 369.833,518.5 370.5,518.5C 370.982,519.416 371.315,520.416 371.5,521.5C 364.235,556.763 357.735,592.096 352,627.5C 355,622.167 358,616.833 361,611.5C 369.897,554.015 381.73,497.181 396.5,441C 394.548,440.634 392.882,439.801 391.5,438.5C 391.5,437.5 391.5,436.5 391.5,435.5C 393.665,428.175 396.165,420.841 399,413.5C 408.092,395.47 414.259,376.47 417.5,356.5C 418.167,356.5 418.5,356.167 418.5,355.5C 419.167,355.5 419.5,355.167 419.5,354.5C 420.167,354.5 420.833,354.5 421.5,354.5C 421.833,354.5 422.167,354.5 422.5,354.5C 424.07,356.851 424.903,359.518 425,362.5C 440.132,337.779 459.299,316.612 482.5,299C 505.614,284.775 529.614,272.108 554.5,261C 567.644,255.464 581.31,252.297 595.5,251.5C 595.833,251.5 596.167,251.5 596.5,251.5C 596.833,252.5 597.5,253.167 598.5,253.5C 598.5,254.167 598.5,254.833 598.5,255.5C 598.5,255.833 598.5,256.167 598.5,256.5C 588.544,258.664 578.544,261.164 568.5,264C 542.094,274.203 516.761,286.537 492.5,301C 485.216,305.95 478.216,311.283 471.5,317C 448.346,339.49 429.846,365.323 416,394.5C 414.679,397.77 414.013,401.103 414,404.5C 418.667,399.833 423.333,395.167 428,390.5C 431.727,382.045 435.727,373.712 440,365.5C 441.444,363.845 443.278,363.178 445.5,363.5C 446.355,364.531 447.022,365.697 447.5,367C 446.349,369.465 445.349,371.965 444.5,374.5C 448.625,371.547 452.625,368.381 456.5,365C 459.798,360.7 463.465,356.7 467.5,353C 471.381,352.393 474.714,350.726 477.5,348C 482.456,341.254 487.29,334.421 492,327.5C 491.602,325.369 490.602,323.369 489,321.5C 479.287,330.533 471.12,340.7 464.5,352C 462.16,352.748 460.16,352.248 458.5,350.5C 458.5,349.5 458.5,348.5 458.5,347.5C 460.741,343.407 463.241,339.407 466,335.5C 486.319,311.108 511.319,294.108 541,284.5C 559.859,278.728 579.026,274.228 598.5,271C 590.123,270.788 581.79,271.121 573.5,272C 570.833,270 570.833,268 573.5,266C 581.377,264.075 589.377,263.242 597.5,263.5C 611.587,264.696 625.587,266.196 639.5,268C 633.235,262.561 626.568,257.728 619.5,253.5C 618.89,252.609 618.557,251.609 618.5,250.5C 618.5,250.167 618.5,249.833 618.5,249.5C 619.5,249.167 620.167,248.5 620.5,247.5 Z M 619.5,253.5 C 626.568,257.728 633.235,262.561 639.5,268C 625.587,266.196 611.587,264.696 597.5,263.5C 589.377,263.242 581.377,264.075 573.5,266C 570.833,268 570.833,270 573.5,272C 581.79,271.121 590.123,270.788 598.5,271C 579.026,274.228 559.859,278.728 541,284.5C 511.319,294.108 486.319,311.108 466,335.5C 463.241,339.407 460.741,343.407 458.5,347.5C 458.062,347.565 457.728,347.399 457.5,347C 459.285,343.905 460.618,341.071 461.5,338.5C 462.401,337.71 463.068,336.71 463.5,335.5C 464.341,334.074 465.341,332.74 466.5,331.5C 468.19,331.144 469.19,330.144 469.5,328.5C 470.338,328.158 470.672,327.492 470.5,326.5C 472.122,325.878 473.455,324.878 474.5,323.5C 475.833,323.167 475.833,322.833 474.5,322.5C 474.5,322.167 474.5,321.833 474.5,321.5C 475.167,321.5 475.5,321.167 475.5,320.5C 479.463,317.871 483.129,314.871 486.5,311.5C 486.649,310.448 486.483,309.448 486,308.5C 484.333,309.733 482.833,311.067 481.5,312.5C 479.345,313.269 477.345,314.435 475.5,316C 476.167,316.333 476.833,316.667 477.5,317C 474.506,317.406 472.339,318.906 471,321.5C 470.667,321.167 470.333,320.833 470,320.5C 467.473,323.939 464.473,326.939 461,329.5C 459.887,330.76 459.72,331.927 460.5,333C 458.641,333.684 456.974,334.684 455.5,336C 455.833,336.333 456.167,336.667 456.5,337C 454.09,337.057 452.756,338.224 452.5,340.5C 446.365,347.631 441.032,355.297 436.5,363.5C 439.673,362.632 442.673,362.632 445.5,363.5C 443.278,363.178 441.444,363.845 440,365.5C 435.727,373.712 431.727,382.045 428,390.5C 423.333,395.167 418.667,399.833 414,404.5C 414.013,401.103 414.679,397.77 416,394.5C 429.846,365.323 448.346,339.49 471.5,317C 478.216,311.283 485.216,305.95 492.5,301C 516.761,286.537 542.094,274.203 568.5,264C 578.544,261.164 588.544,258.664 598.5,256.5C 598.461,257.583 598.127,258.583 597.5,259.5C 598.262,259.911 599.262,260.077 600.5,260C 599.66,261.666 600.16,261.833 602,260.5C 603.785,261.24 605.618,261.907 607.5,262.5C 608.192,261.975 608.692,261.308 609,260.5C 611.333,261.5 613.667,262.5 616,263.5C 617.147,262.542 618.147,262.875 619,264.5C 619.333,263.833 619.667,263.167 620,262.5C 622.177,265.722 625.01,266.389 628.5,264.5C 628.52,262.857 627.853,261.524 626.5,260.5C 624.148,259.015 621.814,257.682 619.5,256.5C 619.5,255.5 619.5,254.5 619.5,253.5 Z M 598.5,253.5 C 600.933,253.786 600.933,254.452 598.5,255.5C 598.5,254.833 598.5,254.167 598.5,253.5 Z M 596.5,251.5 C 598.993,251.131 599.66,251.797 598.5,253.5C 597.5,253.167 596.833,252.5 596.5,251.5 Z M 591.5,287.5 C 588.746,288.641 586.079,289.975 583.5,291.5C 577.073,293.878 570.74,296.545 564.5,299.5C 563.479,298.998 563.312,298.332 564,297.5C 566.167,295.333 568.333,293.167 570.5,291C 577.438,289.399 584.438,288.233 591.5,287.5 Z M 527.5,315.5 C 533.599,312.951 539.599,310.118 545.5,307C 549.103,303.62 552.103,299.787 554.5,295.5C 547.676,296.216 541.009,298.216 534.5,301.5C 531.628,305.91 529.295,310.577 527.5,315.5 Z M 521.5,306.5 C 517.297,308.528 513.464,311.195 510,314.5C 505.533,319.939 501.7,325.772 498.5,332C 504.144,329.665 509.478,326.499 514.5,322.5C 517.421,317.659 520.088,312.659 522.5,307.5C 522.376,306.893 522.043,306.56 521.5,306.5 Z M 444.5,374.5 C 445.349,371.965 446.349,369.465 447.5,367C 447.022,365.697 446.355,364.531 445.5,363.5C 446.5,363.5 447.5,363.5 448.5,363.5C 448.351,364.552 448.517,365.552 449,366.5C 449.667,365.167 450.333,365.167 451,366.5C 452.257,364.254 454.09,362.921 456.5,362.5C 456.413,359.402 456.913,359.068 458,361.5C 458.206,358.637 459.04,356.804 460.5,356C 459.912,354.08 458.912,352.413 457.5,351C 457.728,350.601 458.062,350.435 458.5,350.5C 460.16,352.248 462.16,352.748 464.5,352C 471.12,340.7 479.287,330.533 489,321.5C 490.602,323.369 491.602,325.369 492,327.5C 487.29,334.421 482.456,341.254 477.5,348C 474.714,350.726 471.381,352.393 467.5,353C 463.465,356.7 459.798,360.7 456.5,365C 452.625,368.381 448.625,371.547 444.5,374.5 Z M 496.5,349.5 C 493.49,352.874 490.49,356.208 487.5,359.5C 487.752,353.649 490.752,350.315 496.5,349.5 Z M 469.5,363.5 C 465.36,371.78 461.193,380.114 457,388.5C 455.629,390.041 454.129,391.375 452.5,392.5C 453.156,390.516 453.822,388.516 454.5,386.5C 454.471,384.971 453.804,383.804 452.5,383C 456.971,375.368 462.638,368.868 469.5,363.5 Z M 440.5,388.5 C 435.163,398.508 429.83,408.508 424.5,418.5C 427.363,410.417 430.53,402.417 434,394.5C 436.037,392.294 438.203,390.294 440.5,388.5 Z M 448.5,406.5 C 444.869,409.629 441.369,412.963 438,416.5C 433,425.167 428,433.833 423,442.5C 421.374,445.058 420.374,447.725 420,450.5C 425.667,444.833 431.333,439.167 437,433.5C 440.846,424.479 444.679,415.479 448.5,406.5 Z M 418.5,410.5 C 416.37,412.127 414.37,413.96 412.5,416C 411.552,416.483 410.552,416.649 409.5,416.5C 405.826,432.191 402.326,447.858 399,463.5C 405.999,446.001 412.499,428.335 418.5,410.5 Z M 424.5,418.5 C 423.152,419.527 422.652,420.86 423,422.5C 424.188,421.437 424.688,420.103 424.5,418.5 Z M 427.5,453.5 C 422.535,457.963 417.702,462.63 413,467.5C 406.143,484.393 401.143,501.727 398,519.5C 401.252,514.666 404.252,509.666 407,504.5C 413.847,487.478 420.68,470.478 427.5,453.5 Z M 394.5,481.5 C 389.768,507.077 384.435,532.41 378.5,557.5C 382.598,531.791 387.932,506.457 394.5,481.5 Z M 404.5,523.5 C 401.906,532.119 399.406,540.786 397,549.5C 393.637,555.009 390.137,560.342 386.5,565.5C 388.193,553.036 390.526,540.702 393.5,528.5C 398.052,528.723 401.719,527.056 404.5,523.5 Z M 429.5,530.5 C 425.739,543.784 421.405,556.784 416.5,569.5C 418.237,555.518 422.57,542.518 429.5,530.5 Z M 407.5,639.5 C 415.935,621.728 424.101,603.728 432,585.5C 432.744,578.497 433.078,571.497 433,564.5C 430.355,573.079 428.022,581.746 426,590.5C 423.281,592.219 421.281,594.553 420,597.5C 414.914,611.256 410.747,625.256 407.5,639.5 Z M 390.5,573.5 C 387.895,578.611 385.061,583.611 382,588.5C 380.136,597.141 378.803,605.808 378,614.5C 380.982,600.533 385.482,587.199 391.5,574.5C 391.376,573.893 391.043,573.56 390.5,573.5 Z M 441.5,604.5 C 443.061,612.662 444.394,620.996 445.5,629.5C 442.988,642.883 440.155,656.216 437,669.5C 437.14,652.494 437.807,635.494 439,618.5C 439.029,613.542 439.862,608.876 441.5,604.5 Z M 426.5,620.5 C 419.789,631.925 414.123,643.925 409.5,656.5C 410.934,658.22 411.767,660.22 412,662.5C 414.586,654.236 416.919,645.902 419,637.5C 422.747,632.441 425.247,626.774 426.5,620.5 Z M 356.5,635.5 C 353.441,640.613 350.608,645.947 348,651.5C 336.48,709.992 329.48,768.992 327,828.5C 336.322,764.077 346.156,699.744 356.5,635.5 Z M 428.5,637.5 C 427.813,644.309 427.147,651.142 426.5,658C 426.509,659.404 427.009,660.57 428,661.5C 428.216,653.964 428.716,646.464 429.5,639C 429.43,638.235 429.097,637.735 428.5,637.5 Z M 378.5,646.5 C 371.259,674.475 365.426,702.808 361,731.5C 363.94,725.954 366.606,720.287 369,714.5C 371.935,691.789 375.102,669.123 378.5,646.5 Z M 403.5,669.5 C 401.337,674.155 399.67,678.989 398.5,684C 399.12,688.82 399.62,693.653 400,698.5C 404.34,689.075 405.507,679.408 403.5,669.5 Z M 391.5,705.5 C 390.885,713.521 390.385,721.521 390,729.5C 392.559,721.486 393.059,713.486 391.5,705.5 Z M 404.5,707.5 C 403.31,712.571 401.81,717.571 400,722.5C 399.54,735.18 399.874,747.847 401,760.5C 402.471,743.959 404.304,727.459 406.5,711C 406.392,709.319 405.725,708.152 404.5,707.5 Z M 458.5,710.5 C 457.027,715.711 455.527,721.044 454,726.5C 451,760.502 448.333,794.502 446,828.5C 452.175,789.419 456.342,750.086 458.5,710.5 Z M 423.5,739.5 C 423.217,740.289 422.717,740.956 422,741.5C 421.199,747.165 420.866,752.832 421,758.5C 421.911,752.612 423.078,746.779 424.5,741C 424.43,740.235 424.097,739.735 423.5,739.5 Z M 483.5,744.5 C 484.167,745.167 484.833,745.833 485.5,746.5C 486.166,755.157 486.833,763.823 487.5,772.5C 485.79,789.147 484.29,805.814 483,822.5C 480.987,796.452 481.154,770.452 483.5,744.5 Z M 392.5,746.5 C 389.867,754.698 387.7,763.032 386,771.5C 383.591,809.133 382.591,846.8 383,884.5C 386.667,861.833 390.333,839.167 394,816.5C 394.531,792.988 394.031,769.655 392.5,746.5 Z M 361.5,747.5 C 360.442,748.6 359.608,749.934 359,751.5C 357.081,770.125 356.081,788.792 356,807.5C 359.987,792.93 362.487,778.096 363.5,763C 362.208,760.339 360.875,757.672 359.5,755C 360.322,752.528 360.989,750.028 361.5,747.5 Z M 378.5,748.5 C 376.494,757.523 374.328,766.523 372,775.5C 370.669,784.141 370.002,792.808 370,801.5C 375.16,785.03 378.327,768.196 379.5,751C 379.472,749.93 379.139,749.097 378.5,748.5 Z M 408.5,771.5 C 404.8,797.703 402.967,824.036 403,850.5C 405.111,825.495 407.278,800.495 409.5,775.5C 409.489,773.955 409.156,772.622 408.5,771.5 Z M 438.5,807.5 C 437.374,814.086 437.208,820.753 438,827.5C 438.44,822.327 438.94,817.161 439.5,812C 439.492,810.293 439.158,808.793 438.5,807.5 Z M 375.5,808.5 C 373.195,820.859 370.695,833.192 368,845.5C 366.867,879.305 368.534,912.972 373,946.5C 375.104,936.436 376.271,926.27 376.5,916C 375.72,880.001 375.387,844.168 375.5,808.5 Z M 424.5,808.5 C 423.25,820.996 421.25,833.33 418.5,845.5C 419.204,857.823 419.704,870.157 420,882.5C 421.593,867.159 423.26,851.825 425,836.5C 425.824,826.991 425.658,817.657 424.5,808.5 Z M 464.5,822.5 C 463.473,826.446 463.306,830.446 464,834.5C 464.282,830.961 464.782,827.461 465.5,824C 465.43,823.235 465.097,822.735 464.5,822.5 Z M 345.5,835.5 C 345.08,840.512 344.913,845.512 345,850.5C 346.61,845.39 346.777,840.39 345.5,835.5 Z M 351.5,853.5 C 349.128,865.654 346.128,877.654 342.5,889.5C 343.582,889.749 344.915,889.915 346.5,890C 347.944,891.126 348.61,892.626 348.5,894.5C 344.307,913.965 340.307,933.465 336.5,953C 337.499,963.667 339.333,974.167 342,984.5C 343.894,960.79 346.227,937.124 349,913.5C 349.71,895.137 350.877,876.804 352.5,858.5C 352.493,856.631 352.16,854.964 351.5,853.5 Z M 394.5,856.5 C 391.327,879.205 387.827,901.872 384,924.5C 383.912,934.832 384.245,945.165 385,955.5C 391.222,930.783 396.722,905.95 401.5,881C 399.324,880.837 397.491,880.004 396,878.5C 395.829,870.989 395.329,863.655 394.5,856.5 Z M 459.5,865.5 C 457.992,866.746 456.492,868.08 455,869.5C 453.72,890.492 453.054,911.492 453,932.5C 455.5,911.166 458,889.832 460.5,868.5C 460.48,867.274 460.147,866.274 459.5,865.5 Z M 467.5,868.5 C 463.33,907.2 458.83,945.866 454,984.5C 452.867,986.211 451.367,986.711 449.5,986C 443.898,974.155 442.065,974.989 444,988.5C 444.561,989.022 445.228,989.355 446,989.5C 455.538,986.38 465.371,984.38 475.5,983.5C 475.667,972.162 475.5,960.828 475,949.5C 474.009,948.57 473.509,947.404 473.5,946C 474.013,943.358 474.346,940.691 474.5,938C 471.764,914.721 469.431,891.554 467.5,868.5 Z M 411.5,869.5 C 406.302,909.344 402.969,949.344 401.5,989.5C 405.215,989.423 408.881,989.756 412.5,990.5C 412.832,949.997 412.499,909.663 411.5,869.5 Z M 327.5,879.5 C 326.803,887.039 326.969,894.705 328,902.5C 328.822,894.655 328.656,886.989 327.5,879.5 Z M 359.5,889.5 C 358.662,898.866 357.496,908.199 356,917.5C 355.303,937.88 355.636,958.214 357,978.5C 353.237,981.461 350.904,980.461 350,975.5C 349.664,980.532 349.164,985.532 348.5,990.5C 354.509,990.299 360.509,989.966 366.5,989.5C 367.723,980.494 369.056,971.494 370.5,962.5C 369.598,959.75 368.431,957.083 367,954.5C 363.629,933.635 361.629,912.635 361,891.5C 360.722,890.584 360.222,889.918 359.5,889.5 Z M 590.5,910.5 C 589.03,919.353 587.363,928.187 585.5,937C 585.667,937.833 585.833,938.667 586,939.5C 587.512,940.257 588.846,941.257 590,942.5C 590.367,933.825 590.867,925.158 591.5,916.5C 591.495,914.304 591.162,912.304 590.5,910.5 Z M 619.5,913.5 C 613.848,927.952 607.514,942.119 600.5,956C 603.313,959.981 606.647,963.481 610.5,966.5C 615.158,948.883 618.158,931.216 619.5,913.5 Z M 609.5,917.5 C 607.983,917.489 606.816,916.823 606,915.5C 605.208,917.587 604.041,919.421 602.5,921C 601.004,921.507 599.837,921.007 599,919.5C 597.503,927.779 597.169,936.112 598,944.5C 601.937,935.517 605.77,926.517 609.5,917.5 Z M 322.5,926.5 C 321.119,948.164 319.786,969.83 318.5,991.5C 320.451,991.773 321.951,991.107 323,989.5C 324.62,979.113 326.453,968.78 328.5,958.5C 326.395,947.728 324.395,937.061 322.5,926.5 Z M 640.5,928.5 C 638.324,941.218 635.324,953.718 631.5,966C 634.68,967.036 637.18,966.203 639,963.5C 639.202,952.911 640.035,942.245 641.5,931.5C 641.48,930.274 641.147,929.274 640.5,928.5 Z M 421.5,931.5 C 421.892,934.722 421.392,937.722 420,940.5C 419.333,947.167 419.333,953.833 420,960.5C 421.039,953.022 421.872,945.522 422.5,938C 422.496,935.639 422.163,933.473 421.5,931.5 Z M 395.5,942.5 C 393.477,953.591 390.977,964.591 388,975.5C 387.667,979.167 387.333,982.833 387,986.5C 383.718,989.019 384.384,990.019 389,989.5C 390.981,989.371 392.647,988.704 394,987.5C 394.501,974.145 395.335,960.812 396.5,947.5C 396.493,945.631 396.16,943.964 395.5,942.5 Z M 583.5,946.5 C 581.78,954.433 580.447,962.433 579.5,970.5C 586.955,970.414 594.288,969.581 601.5,968C 599.126,965.961 597.126,963.628 595.5,961C 593.671,960.727 592.171,959.893 591,958.5C 589.943,953.607 587.443,949.607 583.5,946.5 Z M 443.5,948.5 C 442.715,955.823 442.548,963.156 443,970.5C 444.134,966.847 444.634,963.014 444.5,959C 444.499,955.317 444.165,951.817 443.5,948.5 Z M 623.5,951.5 C 622.637,956.617 621.304,961.617 619.5,966.5C 620.274,967.711 621.107,967.711 622,966.5C 622.833,962.333 623.667,958.167 624.5,954C 624.472,952.93 624.139,952.097 623.5,951.5 Z M 492.5,958.5 C 492.666,963.179 492.499,967.845 492,972.5C 490.302,973.529 489.468,975.029 489.5,977C 489.743,980.003 491.41,981.17 494.5,980.5C 494.136,972.993 493.47,965.659 492.5,958.5 Z M 377.5,962.5 C 376.632,971.245 375.298,979.911 373.5,988.5C 375.007,989.739 376.174,989.405 377,987.5C 380.141,979.088 380.308,970.754 377.5,962.5 Z M 568.5,963.5 C 567.63,966.378 566.297,969.045 564.5,971.5C 565.651,972.731 566.817,972.731 568,971.5C 568.5,969.5 569,967.5 569.5,965.5C 569.457,964.584 569.124,963.917 568.5,963.5 Z M 429.5,964.5 C 429.336,967.187 429.503,969.854 430,972.5C 430.287,970.109 430.787,967.776 431.5,965.5C 431.043,964.702 430.376,964.369 429.5,964.5 Z M 419.5,970.5 C 419.5,977.167 419.5,983.833 419.5,990.5C 420.833,990.5 422.167,990.5 423.5,990.5C 423.572,984.455 423.072,978.455 422,972.5C 421.292,971.619 420.458,970.953 419.5,970.5 Z M 601.5,974.5 C 594.352,975.653 587.019,976.487 579.5,977C 577.45,978.636 576.45,980.802 576.5,983.5C 586.547,981.991 596.547,980.157 606.5,978C 607.973,977.29 608.64,976.124 608.5,974.5C 606.167,974.5 603.833,974.5 601.5,974.5 Z M 559.5,978.5 C 557.954,980.882 557.287,983.549 557.5,986.5C 560.673,986.599 563.673,985.932 566.5,984.5C 567.348,982.591 567.682,980.591 567.5,978.5C 564.833,978.5 562.167,978.5 559.5,978.5 Z M 331.5,980.5 C 331.276,984.179 330.942,987.846 330.5,991.5C 332.484,991.617 334.15,990.95 335.5,989.5C 334.679,987.217 334.012,984.884 333.5,982.5C 333.253,981.287 332.586,980.62 331.5,980.5 Z M 536.5,980.5 C 535.432,981.434 534.099,981.768 532.5,981.5C 532.5,984.167 532.5,986.833 532.5,989.5C 536.215,989.577 539.881,989.244 543.5,988.5C 543.5,985.833 543.5,983.167 543.5,980.5C 541.167,980.5 538.833,980.5 536.5,980.5 Z M 504.5,984.5 C 503.791,985.404 502.791,985.737 501.5,985.5C 501.833,987.5 502.167,989.5 502.5,991.5C 503.833,991.5 505.167,991.5 506.5,991.5C 507.01,988.612 506.344,986.279 504.5,984.5 Z M 491.5,987.5 C 492.434,988.568 492.768,989.901 492.5,991.5C 493.552,991.649 494.552,991.483 495.5,991C 494.62,989.644 494.286,988.144 494.5,986.5C 493.209,986.263 492.209,986.596 491.5,987.5 Z M 606.5,989.5 C 607.5,989.833 608.167,990.5 608.5,991.5C 607.167,991.5 606.5,990.833 606.5,989.5 Z M 482.5,991.5 C 482.47,992.497 482.97,993.164 484,993.5C 487.088,991.885 486.588,991.218 482.5,991.5 Z M 551.5,1011.5 C 551.167,1011.5 550.833,1011.5 550.5,1011.5C 550.075,1008.55 549.075,1005.89 547.5,1003.5C 548.043,1003.44 548.376,1003.11 548.5,1002.5C 547.398,1001.82 546.398,1001.16 545.5,1000.5C 547.017,1000.49 548.184,999.823 549,998.5C 549.216,996.616 549.883,994.949 551,993.5C 551.499,999.491 551.666,1005.49 551.5,1011.5 Z M 543.5,999.5 C 542.504,999.414 541.671,999.748 541,1000.5C 540.292,999.619 539.458,998.953 538.5,998.5C 537.687,997.347 536.687,997.347 535.5,998.5C 534.756,999.991 534.09,1001.49 533.5,1003C 534.712,1004.11 534.379,1004.61 532.5,1004.5C 532.223,1001.55 532.556,998.719 533.5,996C 536.426,995.782 539.26,995.282 542,994.5C 542.352,996.247 542.852,997.914 543.5,999.5 Z M 439.5,1000.5 C 439.5,1001.17 439.167,1001.5 438.5,1001.5C 438.167,1000.17 437.833,1000.17 437.5,1001.5C 436.211,1000.5 434.878,1000.67 433.5,1002C 434.916,1003.92 434.582,1005.42 432.5,1006.5C 431.841,1003.54 431.508,1000.54 431.5,997.5C 434.942,996.828 437.609,997.828 439.5,1000.5 Z M 508.5,1016.5 C 506.014,1014.91 505.348,1012.91 506.5,1010.5C 506.586,1008.32 507.253,1006.32 508.5,1004.5C 507.05,1003.15 506.383,1001.48 506.5,999.5C 504.799,999.966 503.299,999.966 502,999.5C 501.333,1002.17 500.667,1002.17 500,999.5C 498.23,1000.35 496.563,1002.02 495,1004.5C 492.269,1004.1 489.435,1004.1 486.5,1004.5C 485.646,1005.52 484.646,1006.36 483.5,1007C 485.513,1007.88 485.513,1009.21 483.5,1011C 485.912,1012.84 485.578,1014.34 482.5,1015.5C 482.5,1010.5 482.5,1005.5 482.5,1000.5C 485.885,1000.85 489.218,1001.51 492.5,1002.5C 495.203,1001.96 496.703,1000.29 497,997.5C 501.042,997.787 505.209,997.787 509.5,997.5C 509.347,1003.85 509.014,1010.18 508.5,1016.5 Z M 425.5,1007.5 C 424.883,1007.61 424.383,1007.94 424,1008.5C 423.121,1005.3 421.455,1002.63 419,1000.5C 418.667,1001.17 418.333,1001.83 418,1002.5C 416.644,1001.62 415.144,1001.29 413.5,1001.5C 413.167,1000.17 412.833,1000.17 412.5,1001.5C 409.148,1001.58 405.982,1002.25 403,1003.5C 402.316,1004.78 402.483,1005.95 403.5,1007C 401.707,1009.17 401.374,1011.33 402.5,1013.5C 401.226,1014.19 401.226,1015.02 402.5,1016C 401.906,1016.46 401.239,1016.63 400.5,1016.5C 400.5,1011.17 400.5,1005.83 400.5,1000.5C 407.893,1000.27 415.226,999.606 422.5,998.5C 424.026,1001.31 425.026,1004.31 425.5,1007.5 Z M 565.5,1003.5 C 566.5,1003.83 567.167,1004.5 567.5,1005.5C 565.692,1005.51 564.025,1005.01 562.5,1004C 563.448,1003.52 564.448,1003.35 565.5,1003.5 Z M 425.5,1007.5 C 426.605,1008.6 427.938,1009.27 429.5,1009.5C 429.5,1009.83 429.5,1010.17 429.5,1010.5C 427.244,1011.29 425.91,1010.29 425.5,1007.5 Z"/></g>
<g><path fill="#000000" d="M 801.5,292.5 C 806.32,298.482 811.987,303.649 818.5,308C 823.474,313.82 829.141,318.654 835.5,322.5C 841.102,329.275 846.935,335.942 853,342.5C 857,348.5 861,354.5 865,360.5C 866.511,358.138 868.011,355.805 869.5,353.5C 869.833,353.5 870.167,353.5 870.5,353.5C 871.5,353.5 872.5,353.5 873.5,353.5C 874.122,354.627 874.955,355.627 876,356.5C 878.979,369.037 881.312,381.703 883,394.5C 898.517,429.722 909.184,466.389 915,504.5C 918.036,533.644 922.036,562.644 927,591.5C 937.796,673.48 941.796,755.813 939,838.5C 938.009,877.385 934.676,916.052 929,954.5C 927.491,956.919 925.325,957.919 922.5,957.5C 921.465,968.716 919.465,979.716 916.5,990.5C 915.833,990.5 915.5,990.833 915.5,991.5C 914.167,991.5 912.833,991.5 911.5,991.5C 911.5,990.833 911.167,990.5 910.5,990.5C 910.011,989.005 909.345,987.671 908.5,986.5C 908.684,975.819 908.85,965.152 909,954.5C 907.333,956.628 905.166,957.961 902.5,958.5C 901.557,961.109 899.89,963.109 897.5,964.5C 895.843,971.443 894.51,978.443 893.5,985.5C 893.5,985.833 893.5,986.167 893.5,986.5C 891.858,988.081 889.858,988.747 887.5,988.5C 886.343,986.322 885.01,984.322 883.5,982.5C 883.5,982.167 883.5,981.833 883.5,981.5C 884.936,973.926 886.602,966.426 888.5,959C 886.406,957.745 885.406,955.912 885.5,953.5C 887.055,946.561 887.555,939.561 887,932.5C 886.84,936.287 886.174,939.954 885,943.5C 883.184,945.441 881.184,946.108 879,945.5C 878.498,950.89 876.498,955.557 873,959.5C 871.77,968.177 869.603,976.511 866.5,984.5C 864.389,985.968 862.556,985.635 861,983.5C 860.667,984.5 860.333,985.5 860,986.5C 855.686,989.457 850.853,990.957 845.5,991C 817.207,992.987 788.874,993.987 760.5,994C 759.619,994.708 758.953,995.542 758.5,996.5C 758.167,996.5 757.833,996.5 757.5,996.5C 754.208,996.88 751.875,995.547 750.5,992.5C 749.103,995.026 748.103,997.692 747.5,1000.5C 746.5,1000.83 745.833,1001.5 745.5,1002.5C 743.708,1002.63 742.042,1002.3 740.5,1001.5C 740.5,1000.83 740.167,1000.5 739.5,1000.5C 739.575,997.794 739.908,995.127 740.5,992.5C 734.283,991.943 728.117,991.276 722,990.5C 720.519,991.471 719.685,992.804 719.5,994.5C 718.833,994.5 718.5,994.833 718.5,995.5C 717.833,995.5 717.5,995.833 717.5,996.5C 717.167,996.5 716.833,996.5 716.5,996.5C 715.833,996.5 715.167,996.5 714.5,996.5C 713.538,993.74 711.538,992.406 708.5,992.5C 704.855,993.116 701.188,993.45 697.5,993.5C 697.167,993.5 696.833,993.5 696.5,993.5C 696.167,992.5 695.5,991.833 694.5,991.5C 694.5,991.167 694.5,990.833 694.5,990.5C 694.557,989.391 694.89,988.391 695.5,987.5C 696.167,987.5 696.5,987.167 696.5,986.5C 700.509,986.142 704.509,985.642 708.5,985C 707.346,980.974 709.013,979.141 713.5,979.5C 713.666,975.486 713.499,971.486 713,967.5C 709.237,970.461 706.904,969.461 706,964.5C 704.194,968.918 702.194,973.251 700,977.5C 698.736,979.607 696.903,980.607 694.5,980.5C 692.722,978.171 691.722,975.504 691.5,972.5C 690.178,972.33 689.011,972.663 688,973.5C 687.376,977.918 686.543,982.251 685.5,986.5C 684.518,987.141 683.518,987.807 682.5,988.5C 681.683,991.467 680.35,994.134 678.5,996.5C 677.391,996.443 676.391,996.11 675.5,995.5C 675.5,994.833 675.167,994.5 674.5,994.5C 674.5,994.167 674.5,993.833 674.5,993.5C 676.137,982.226 676.637,970.892 676,959.5C 674.617,964.08 673.617,968.747 673,973.5C 669.381,975.863 667.547,979.196 667.5,983.5C 666.5,983.833 665.833,984.5 665.5,985.5C 664.833,985.5 664.5,985.833 664.5,986.5C 663.833,986.5 663.167,986.5 662.5,986.5C 662.5,985.833 662.167,985.5 661.5,985.5C 661.5,984.833 661.167,984.5 660.5,984.5C 660.5,982.5 660.5,980.5 660.5,978.5C 661.043,977.258 661.377,975.925 661.5,974.5C 660.801,968.52 660.301,962.52 660,956.5C 658.214,959.736 656.714,963.07 655.5,966.5C 653.58,969.762 651.246,972.762 648.5,975.5C 646.983,975.489 645.816,974.823 645,973.5C 644.427,968.412 644.927,963.412 646.5,958.5C 646.019,955.917 645.352,953.417 644.5,951C 645.667,949.833 646.833,948.667 648,947.5C 648.235,934.119 649.068,920.786 650.5,907.5C 651.167,907.5 651.5,907.167 651.5,906.5C 651.5,906.167 651.5,905.833 651.5,905.5C 653.277,900.556 656.61,897.056 661.5,895C 663.795,891.703 666.462,888.703 669.5,886C 670.5,885.333 671.5,885.333 672.5,886C 674.703,888.76 675.036,891.76 673.5,895C 675.751,896.989 676.084,899.322 674.5,902C 676.026,907.682 677.193,913.515 678,919.5C 681.422,914.322 685.089,909.322 689,904.5C 689.333,902.167 689.667,899.833 690,897.5C 690.739,896.426 691.739,895.759 693,895.5C 695.238,896.899 695.905,896.232 695,893.5C 693.764,892.601 692.93,891.434 692.5,890C 693.276,887.005 694.443,884.172 696,881.5C 701.241,875.636 704.075,876.636 704.5,884.5C 709.384,881.794 714.384,879.294 719.5,877C 722.5,873.333 725.5,869.667 728.5,866C 729.996,865.493 731.163,865.993 732,867.5C 732.291,869.783 731.791,871.95 730.5,874C 730.833,875 731.167,876 731.5,877C 729.79,884.129 727.29,890.962 724,897.5C 722.183,903.435 720.683,909.435 719.5,915.5C 723.776,905.615 728.609,895.949 734,886.5C 737.171,873.814 740.338,861.148 743.5,848.5C 751.023,824.039 756.19,799.039 759,773.5C 768.256,699.121 777.756,624.788 787.5,550.5C 778.842,549.501 770.175,548.501 761.5,547.5C 758.453,547.562 755.786,548.562 753.5,550.5C 751.792,550.297 750.459,549.464 749.5,548C 734.833,547.333 720.167,547.333 705.5,548C 703.261,549.644 700.927,551.144 698.5,552.5C 696.595,551.935 694.929,550.935 693.5,549.5C 690.747,551.994 688.08,551.994 685.5,549.5C 682.242,550.417 678.909,550.751 675.5,550.5C 676.21,553.885 675.044,556.219 672,557.5C 669.46,556.793 668.293,555.127 668.5,552.5C 666.473,552.662 664.473,552.495 662.5,552C 659.833,550 659.833,548 662.5,546C 664.246,545.529 665.913,544.862 667.5,544C 666.598,533.563 665.765,523.063 665,512.5C 664.085,513.328 663.419,514.328 663,515.5C 660.784,527.464 658.784,539.464 657,551.5C 654.667,554.167 652.333,554.167 650,551.5C 651.056,541.154 652.556,530.821 654.5,520.5C 654.198,517.941 654.532,515.607 655.5,513.5C 657.626,503.385 659.959,493.218 662.5,483C 661.219,481.591 660.219,480.091 659.5,478.5C 659.667,465.487 659.834,452.487 660,439.5C 657.627,451.659 654.627,463.659 651,475.5C 649.475,478.087 647.308,478.92 644.5,478C 642.523,475.74 641.523,473.073 641.5,470C 648.046,422.435 656.713,375.268 667.5,328.5C 666.5,328.5 665.5,328.5 664.5,328.5C 662.574,327.514 660.574,326.514 658.5,325.5C 653.12,322.741 650.954,318.408 652,312.5C 655.148,307.509 659.314,303.843 664.5,301.5C 668.021,300.901 671.021,299.568 673.5,297.5C 674.388,294.946 674.721,292.279 674.5,289.5C 675.156,288.378 675.489,287.045 675.5,285.5C 675.098,282.693 674.598,280.027 674,277.5C 677.514,274.5 681.347,272.167 685.5,270.5C 704.609,261.237 724.109,260.237 744,267.5C 747.631,265.65 751.464,265.15 755.5,266C 769.589,269.884 781.255,277.551 790.5,289C 794.355,289.711 798.021,290.878 801.5,292.5 Z M 713.5,270.5 C 718.9,269.239 724.233,269.572 729.5,271.5C 724.178,271.02 718.845,270.687 713.5,270.5 Z M 902.5,524.5 C 902.675,531.525 902.342,538.525 901.5,545.5C 902.199,553.485 902.699,561.485 903,569.5C 903.414,569.043 903.914,568.709 904.5,568.5C 905.402,553.636 904.736,538.97 902.5,524.5 Z M 912.5,555.5 C 912.734,568.175 913.234,580.841 914,593.5C 914.667,582.5 914.667,571.5 914,560.5C 913.802,558.618 913.302,556.952 912.5,555.5 Z M 920.5,601.5 C 919.89,617.384 917.723,633.05 914,648.5C 913.333,655.5 913.333,662.5 914,669.5C 915.298,668.44 916.465,667.274 917.5,666C 919.548,656.806 922.215,647.806 925.5,639C 924.077,626.333 922.41,613.833 920.5,601.5 Z M 869.5,674.5 C 867.238,722.697 862.738,770.697 856,818.5C 854,822.5 852,826.5 850,830.5C 849.333,828.167 849.333,825.833 850,823.5C 854.428,807.033 857.428,790.366 859,773.5C 857.267,771.398 855.267,771.065 853,772.5C 853.794,761.773 855.294,751.106 857.5,740.5C 861.521,743.602 863.854,742.602 864.5,737.5C 863.441,731.656 861.774,725.989 859.5,720.5C 861.687,707.524 863.687,694.524 865.5,681.5C 866.567,679.036 867.9,676.703 869.5,674.5 Z M 928.5,683.5 C 923.125,715.953 917.792,748.453 912.5,781C 912.574,785.525 914.074,789.358 917,792.5C 917.373,800.186 917.373,807.852 917,815.5C 920.471,806.088 924.137,796.754 928,787.5C 929.333,786.167 930.667,784.833 932,783.5C 932.879,749.942 931.712,716.609 928.5,683.5 Z M 844.5,723.5 C 844.382,726.688 843.549,729.688 842,732.5C 841.398,729.779 841.565,727.113 842.5,724.5C 843.167,724.167 843.833,723.833 844.5,723.5 Z M 900.5,723.5 C 897.772,737.354 896.605,751.354 897,765.5C 899.224,754.051 901.057,742.551 902.5,731C 902.475,728.071 901.809,725.571 900.5,723.5 Z M 884.5,731.5 C 883.812,739.846 883.312,748.18 883,756.5C 885.574,748.152 886.074,739.818 884.5,731.5 Z M 794.5,797.5 C 790.607,818.469 786.773,839.469 783,860.5C 783.07,842.803 783.904,825.136 785.5,807.5C 788.5,804.167 791.5,800.833 794.5,797.5 Z M 925.5,816.5 C 922.277,823.967 919.277,831.633 916.5,839.5C 917.517,842.028 918.684,842.028 920,839.5C 921.377,831.662 923.21,823.996 925.5,816.5 Z M 907.5,821.5 C 905.854,828.141 904.521,834.975 903.5,842C 903.833,842.5 904.167,843 904.5,843.5C 906.061,836.241 907.061,828.907 907.5,821.5 Z M 931.5,824.5 C 927.067,845.497 923.734,866.663 921.5,888C 922.913,891.037 924.08,894.204 925,897.5C 925.333,906.5 925.667,915.5 926,924.5C 929.653,891.077 931.487,857.743 931.5,824.5 Z M 812.5,832.5 C 811.489,834.402 811.322,836.402 812,838.5C 812.346,836.782 812.846,835.115 813.5,833.5C 813.376,832.893 813.043,832.56 812.5,832.5 Z M 761.5,833.5 C 758.993,861.235 755.826,888.902 752,916.5C 750.95,921.581 749.116,926.248 746.5,930.5C 749.44,913.196 752.273,895.862 755,878.5C 755.084,864.053 756.25,849.719 758.5,835.5C 759.5,834.833 760.5,834.167 761.5,833.5 Z M 854.5,838.5 C 850.682,847.474 846.848,856.474 843,865.5C 841.77,877.822 841.103,890.156 841,902.5C 846.26,882.553 852.427,862.887 859.5,843.5C 857.451,842.118 855.785,840.452 854.5,838.5 Z M 773.5,847.5 C 771.947,849.385 769.947,850.385 767.5,850.5C 765.446,866.145 763.946,881.812 763,897.5C 764.911,895.658 766.911,893.991 769,892.5C 770.977,877.54 772.477,862.54 773.5,847.5 Z M 830.5,855.5 C 828.643,862.573 826.476,869.573 824,876.5C 823.333,881.833 823.333,887.167 824,892.5C 829.648,880.604 831.815,868.271 830.5,855.5 Z M 910.5,867.5 C 907.707,874.217 906.54,881.217 907,888.5C 907.653,885.193 909.319,882.527 912,880.5C 912.717,875.908 912.217,871.575 910.5,867.5 Z M 743.5,888.5 C 740.557,891.353 740.89,893.686 744.5,895.5C 745.221,893.314 745.887,891.147 746.5,889C 745.552,888.517 744.552,888.351 743.5,888.5 Z M 873.5,889.5 C 872.903,893.832 872.737,898.165 873,902.5C 874.447,898.042 874.614,893.709 873.5,889.5 Z M 710.5,893.5 C 707.276,896.218 704.109,899.218 701,902.5C 699.627,904.695 699.294,907.029 700,909.5C 704.142,904.537 707.642,899.204 710.5,893.5 Z M 816.5,898.5 C 812.925,906.134 811.758,914.134 813,922.5C 817.237,914.78 818.404,906.78 816.5,898.5 Z M 766.5,904.5 C 764.679,908.812 762.846,913.145 761,917.5C 760.333,922.167 760.333,926.833 761,931.5C 764.297,923.445 766.464,915.112 767.5,906.5C 767.457,905.584 767.124,904.917 766.5,904.5 Z M 790.5,904.5 C 789.391,905.29 788.058,905.79 786.5,906C 785.458,907.918 784.292,909.751 783,911.5C 779.678,925.439 777.012,939.439 775,953.5C 781.176,937.153 786.343,920.82 790.5,904.5 Z M 855.5,912.5 C 849.511,930.132 843.511,947.798 837.5,965.5C 838.167,965.833 838.833,966.167 839.5,966.5C 844.111,965.398 848.778,964.731 853.5,964.5C 854.932,953.308 856.599,942.141 858.5,931C 857.396,924.704 856.396,918.537 855.5,912.5 Z M 690.5,913.5 C 690.489,915.017 689.823,916.184 688.5,917C 689.333,917.833 690.167,918.667 691,919.5C 691.789,917.288 691.622,915.288 690.5,913.5 Z M 709.5,915.5 C 706.855,920.782 703.688,925.782 700,930.5C 699.392,936.874 699.725,943.207 701,949.5C 704.47,938.923 707.637,928.256 710.5,917.5C 710.457,916.584 710.124,915.917 709.5,915.5 Z M 654.5,917.5 C 653.652,921.227 652.652,924.893 651.5,928.5C 649.518,924.024 650.518,920.357 654.5,917.5 Z M 800.5,919.5 C 800.333,931.505 800.5,943.505 801,955.5C 805.449,945.577 806.615,935.243 804.5,924.5C 802.459,923.293 801.126,921.626 800.5,919.5 Z M 869.5,930.5 C 868.431,933.408 868.264,936.408 869,939.5C 869.436,937.153 869.936,934.819 870.5,932.5C 870.457,931.584 870.124,930.917 869.5,930.5 Z M 883.5,981.5 C 880.894,980.15 880.894,978.65 883.5,977C 882.949,975.602 882.616,974.268 882.5,973C 883.991,970.903 884.991,968.57 885.5,966C 885.928,961.823 885.262,957.656 883.5,953.5C 884.833,953.167 884.833,952.833 883.5,952.5C 882.968,949.54 882.301,949.207 881.5,951.5C 879.797,950.34 879.131,951.007 879.5,953.5C 878.662,953.842 878.328,954.508 878.5,955.5C 876.638,957.891 875.304,960.558 874.5,963.5C 873.766,964.878 873.099,966.378 872.5,968C 872.5,970.333 872.5,972.667 872.5,975C 870.2,976.113 869.867,977.613 871.5,979.5C 870.476,981.946 868.809,983.612 866.5,984.5C 869.603,976.511 871.77,968.177 873,959.5C 876.498,955.557 878.498,950.89 879,945.5C 881.184,946.108 883.184,945.441 885,943.5C 886.174,939.954 886.84,936.287 887,932.5C 887.555,939.561 887.055,946.561 885.5,953.5C 885.406,955.912 886.406,957.745 888.5,959C 886.602,966.426 884.936,973.926 883.5,981.5 Z M 677.5,933.5 C 675.559,935.011 675.059,937.011 676,939.5C 676.813,937.564 677.313,935.564 677.5,933.5 Z M 682.5,941.5 C 683.117,941.389 683.617,941.056 684,940.5C 684.837,938.179 685.17,935.845 685,933.5C 683.659,936.022 682.826,938.689 682.5,941.5 Z M 821.5,939.5 C 820.652,944.226 819.485,948.892 818,953.5C 816.347,959.547 813.014,960.88 808,957.5C 807.036,961.468 804.869,964.635 801.5,967C 798.692,967.92 796.525,967.087 795,964.5C 794.114,959.53 793.448,954.53 793,949.5C 791.667,954.167 790.333,958.833 789,963.5C 787.737,965.797 785.903,966.63 783.5,966C 781.879,963.834 781.045,961.334 781,958.5C 779.177,964.313 776.677,969.813 773.5,975C 789.664,974.807 805.664,972.974 821.5,969.5C 821.608,960.769 822.274,952.102 823.5,943.5C 823.006,941.974 822.339,940.641 821.5,939.5 Z M 746.5,952.5 C 743.205,958.523 740.371,964.856 738,971.5C 733.811,975.881 731.311,975.048 730.5,969C 732.086,961.843 733.252,954.677 734,947.5C 732.333,950.167 730.667,950.167 729,947.5C 726.328,957.358 724.495,967.358 723.5,977.5C 730.167,977.167 736.833,976.833 743.5,976.5C 744.687,968.525 745.687,960.525 746.5,952.5 Z M 908.5,986.5 C 907.471,985.874 906.471,985.041 905.5,984C 906.167,983.667 906.833,983.333 907.5,983C 906.167,978 906.167,973 907.5,968C 904.936,966.149 904.936,964.316 907.5,962.5C 907.145,961.478 906.478,960.811 905.5,960.5C 904.265,962.957 902.265,964.29 899.5,964.5C 899.371,966.216 899.038,967.883 898.5,969.5C 897.784,971.556 897.117,973.723 896.5,976C 896.833,977 897.167,978 897.5,979C 894.833,979.667 894.833,980.333 897.5,981C 895.606,982.079 895.273,983.413 896.5,985C 895.552,985.483 894.552,985.649 893.5,985.5C 894.51,978.443 895.843,971.443 897.5,964.5C 899.89,963.109 901.557,961.109 902.5,958.5C 905.166,957.961 907.333,956.628 909,954.5C 908.85,965.152 908.684,975.819 908.5,986.5 Z M 691.5,956.5 C 691.308,959.601 690.642,962.601 689.5,965.5C 690.325,966.386 691.325,966.719 692.5,966.5C 692.813,962.958 692.479,959.625 691.5,956.5 Z M 696.5,986.5 C 699.339,983.838 702.339,982.171 705.5,981.5C 707.105,980.994 707.439,980.327 706.5,979.5C 706.833,978.5 707.5,977.833 708.5,977.5C 708.833,978.833 709.167,978.833 709.5,977.5C 710.622,975.712 710.789,973.712 710,971.5C 707.46,970.124 705.46,970.79 704,973.5C 703.383,974.449 703.549,975.282 704.5,976C 703.552,976.483 702.552,976.649 701.5,976.5C 700.503,980.541 698.169,981.874 694.5,980.5C 696.903,980.607 698.736,979.607 700,977.5C 702.194,973.251 704.194,968.918 706,964.5C 706.904,969.461 709.237,970.461 713,967.5C 713.499,971.486 713.666,975.486 713.5,979.5C 709.013,979.141 707.346,980.974 708.5,985C 704.509,985.642 700.509,986.142 696.5,986.5 Z M 694.5,980.5 C 692.565,979.85 690.565,979.517 688.5,979.5C 688.286,981.144 688.62,982.644 689.5,984C 688.264,985.085 686.931,985.918 685.5,986.5C 686.543,982.251 687.376,977.918 688,973.5C 689.011,972.663 690.178,972.33 691.5,972.5C 691.722,975.504 692.722,978.171 694.5,980.5 Z M 848.5,973.5 C 844.034,974.95 839.368,976.116 834.5,977C 840.149,977.757 845.816,978.257 851.5,978.5C 851.286,976.856 851.62,975.356 852.5,974C 851.207,973.51 849.873,973.343 848.5,973.5 Z M 801.5,982.5 C 793.712,984.143 785.712,985.31 777.5,986C 795.849,986.648 814.182,986.314 832.5,985C 822.265,983.556 811.932,982.723 801.5,982.5 Z M 883.5,982.5 C 885.01,984.322 886.343,986.322 887.5,988.5C 885.551,987.816 883.885,986.649 882.5,985C 883.252,984.329 883.586,983.496 883.5,982.5 Z M 893.5,986.5 C 893.142,988.701 891.808,990.035 889.5,990.5C 888.478,990.145 887.811,989.478 887.5,988.5C 889.858,988.747 891.858,988.081 893.5,986.5 Z M 908.5,986.5 C 909.345,987.671 910.011,989.005 910.5,990.5C 908.15,989.805 907.483,988.472 908.5,986.5 Z M 695.5,987.5 C 694.89,988.391 694.557,989.391 694.5,990.5C 694.167,990.5 693.833,990.5 693.5,990.5C 693.285,988.821 693.952,987.821 695.5,987.5 Z M 694.5,991.5 C 695.5,991.833 696.167,992.5 696.5,993.5C 695.5,993.5 694.5,993.5 693.5,993.5C 693.5,993.167 693.5,992.833 693.5,992.5C 694.167,992.5 694.5,992.167 694.5,991.5 Z M 714.5,996.5 C 712.914,995.587 711.414,995.587 710,996.5C 709.481,995.484 708.647,994.818 707.5,994.5C 705.865,995.046 704.199,995.38 702.5,995.5C 701.833,994.167 701.167,994.167 700.5,995.5C 699.29,995.068 698.29,994.401 697.5,993.5C 701.188,993.45 704.855,993.116 708.5,992.5C 711.538,992.406 713.538,993.74 714.5,996.5 Z M 667.5,983.5 C 667.5,984.833 666.833,985.5 665.5,985.5C 665.833,984.5 666.5,983.833 667.5,983.5 Z"/></g>
<g><path fill="#fff5e3" d="M 670.5,270.5 C 675.5,270.5 680.5,270.5 685.5,270.5C 681.347,272.167 677.514,274.5 674,277.5C 674.598,280.027 675.098,282.693 675.5,285.5C 675.489,287.045 675.156,288.378 674.5,289.5C 672.031,288.431 669.698,287.098 667.5,285.5C 669.038,280.608 670.038,275.608 670.5,270.5 Z"/></g>
<g><path fill="#fff5e3" d="M 713.5,270.5 C 718.845,270.687 724.178,271.02 729.5,271.5C 730.5,271.5 731.5,271.5 732.5,271.5C 734.218,272.224 736.052,272.891 738,273.5C 737.865,275.425 737.698,277.425 737.5,279.5C 730.915,278.913 724.415,279.579 718,281.5C 716.473,277.614 714.306,274.114 711.5,271C 712.094,270.536 712.761,270.369 713.5,270.5 Z"/></g>
<g><path fill="#fff5e3" d="M 661.5,271.5 C 660.772,273.512 659.938,275.512 659,277.5C 657.293,275.963 655.793,274.296 654.5,272.5C 656.764,271.781 659.097,271.448 661.5,271.5 Z"/></g>
<g><path fill="#fff5e3" d="M 745.5,275.5 C 761.68,280.373 761.346,281.54 744.5,279C 745.337,277.989 745.67,276.822 745.5,275.5 Z"/></g>
<g><path fill="#fef5e2" d="M 644.5,284.5 C 645.497,284.47 646.164,284.97 646.5,286C 643.183,296.286 639.683,306.452 636,316.5C 638.501,305.817 641.334,295.151 644.5,284.5 Z"/></g>
<g><path fill="#fef5e2" d="M 594.5,286.5 C 595.873,286.343 597.207,286.51 598.5,287C 593.571,288.81 588.571,290.31 583.5,291.5C 586.079,289.975 588.746,288.641 591.5,287.5C 592.791,287.737 593.791,287.404 594.5,286.5 Z"/></g>
<g><path fill="#fef5e2" d="M 633.5,290.5 C 634.239,290.369 634.906,290.536 635.5,291C 632.138,299.28 629.472,307.78 627.5,316.5C 626.127,316.657 624.793,316.49 623.5,316C 625.996,310.517 628.496,305.017 631,299.5C 631.825,297.299 631.325,295.466 629.5,294C 630.731,292.595 632.064,291.429 633.5,290.5 Z"/></g>
<g><path fill="#fef5e2" d="M 673.5,297.5 C 671.021,299.568 668.021,300.901 664.5,301.5C 664.833,299.5 665.167,297.5 665.5,295.5C 668.421,295.283 671.087,295.949 673.5,297.5 Z"/></g>
<g><path fill="#fef5e2" d="M 589.5,297.5 C 590.774,298.189 590.774,299.023 589.5,300C 585.359,302.489 581.025,304.489 576.5,306C 572.452,309.716 568.118,313.05 563.5,316C 558.241,317.641 553.074,319.475 548,321.5C 548.894,318.205 550.394,315.039 552.5,312C 564.972,307.237 577.306,302.404 589.5,297.5 Z"/></g>
<g><path fill="#fef5e2" d="M 621.5,297.5 C 623.648,297.389 623.981,298.056 622.5,299.5C 621.635,300.583 620.635,300.749 619.5,300C 620.381,299.292 621.047,298.458 621.5,297.5 Z"/></g>
<g><path fill="#fef5e2" d="M 607.5,305.5 C 608.043,305.56 608.376,305.893 608.5,306.5C 607.498,308.51 606.498,310.51 605.5,312.5C 605.55,311.152 605.217,309.652 604.5,308C 605.571,307.148 606.571,306.315 607.5,305.5 Z"/></g>
<g><path fill="#ffefdb" d="M 669.5,317.5 C 668.833,318.5 668.167,319.5 667.5,320.5C 664.759,320.293 662.426,319.293 660.5,317.5C 661.301,315.958 661.634,314.292 661.5,312.5C 663.985,310.087 666.985,308.42 670.5,307.5C 671.458,311.017 671.125,314.35 669.5,317.5 Z"/></g>
<g><path fill="#fe0000" d="M 661.5,312.5 C 661.634,314.292 661.301,315.958 660.5,317.5C 657.795,315.466 658.128,313.799 661.5,312.5 Z"/></g>
<g><path fill="#fef5e2" d="M 774.5,313.5 C 777.09,313.918 779.423,314.918 781.5,316.5C 778.382,317.443 776.048,316.443 774.5,313.5 Z"/></g>
<g><path fill="#fe0000" d="M 669.5,317.5 C 669.762,318.978 669.429,320.311 668.5,321.5C 667.893,321.376 667.56,321.043 667.5,320.5C 668.167,319.5 668.833,318.5 669.5,317.5 Z"/></g>
<g><path fill="#fef5e2" d="M 821.5,332.5 C 820.459,327.605 817.626,323.939 813,321.5C 812.333,320.833 812.333,320.167 813,319.5C 816.333,322.167 819.667,324.833 823,327.5C 823.599,329.535 823.099,331.201 821.5,332.5 Z"/></g>
<g><path fill="#fef5e2" d="M 732.5,320.5 C 734.759,321.344 735.759,323.011 735.5,325.5C 734.167,325.5 732.833,325.5 731.5,325.5C 731.366,323.708 731.699,322.042 732.5,320.5 Z"/></g>
<g><path fill="#fef5e2" d="M 530.5,322.5 C 531.525,322.897 531.692,323.563 531,324.5C 528.095,328.625 524.262,330.292 519.5,329.5C 523.026,326.906 526.692,324.573 530.5,322.5 Z"/></g>
<g><path fill="#fef5e2" d="M 598.5,322.5 C 601.971,322.899 602.304,324.399 599.5,327C 594.496,329.09 589.829,331.423 585.5,334C 586.585,331.828 587.919,329.828 589.5,328C 592.672,326.303 595.672,324.47 598.5,322.5 Z"/></g>
<g><path fill="#fef5e2" d="M 797.5,322.5 C 798.922,322.709 800.255,323.209 801.5,324C 799.537,324.844 798.204,324.344 797.5,322.5 Z"/></g>
<g><path fill="#fef5e2" d="M 632.5,323.5 C 633.376,323.369 634.043,323.702 634.5,324.5C 633.678,328.471 632.178,332.138 630,335.5C 630.902,331.598 631.735,327.598 632.5,323.5 Z"/></g>
<g><path fill="#fef5e2" d="M 658.5,325.5 C 660.574,326.514 662.574,327.514 664.5,328.5C 662.519,330.303 660.352,331.97 658,333.5C 657.825,330.843 657.992,328.176 658.5,325.5 Z"/></g>
<g><path fill="#fef5e2" d="M 608.5,330.5 C 609.376,330.369 610.043,330.702 610.5,331.5C 609.561,335.318 608.227,338.985 606.5,342.5C 606.167,342.167 605.833,341.833 605.5,341.5C 606.183,337.725 607.183,334.059 608.5,330.5 Z"/></g>
<g><path fill="#fef5e2" d="M 540.5,331.5 C 543.001,331.511 543.168,332.178 541,333.5C 540.536,332.906 540.369,332.239 540.5,331.5 Z"/></g>
<g><path fill="#fe0000" d="M 684.5,339.5 C 683.626,342.535 682.626,345.535 681.5,348.5C 681.211,342.755 681.711,337.088 683,331.5C 683.272,334.254 683.772,336.921 684.5,339.5 Z"/></g>
<g><path fill="#fef5e2" d="M 821.5,332.5 C 821.483,334.028 820.816,334.528 819.5,334C 820.044,333.283 820.711,332.783 821.5,332.5 Z"/></g>
<g><path fill="#fe0000" d="M 673.5,333.5 C 674.508,341.019 674.341,348.686 673,356.5C 669.233,365.81 666.233,375.476 664,385.5C 666.707,368.127 669.874,350.794 673.5,333.5 Z"/></g>
<g><path fill="#fef5e2" d="M 828.5,335.5 C 829.647,339.646 829.814,343.98 829,348.5C 828.208,346.413 827.041,344.579 825.5,343C 826.642,340.55 827.642,338.05 828.5,335.5 Z"/></g>
<g><path fill="#fef5e2" d="M 517.5,339.5 C 518.675,339.281 519.675,339.614 520.5,340.5C 519.499,343.173 517.999,345.507 516,347.5C 514.786,345.951 513.286,344.785 511.5,344C 513.229,342.052 515.229,340.552 517.5,339.5 Z"/></g>
<g><path fill="#fef5e2" d="M 733.5,340.5 C 735.856,342.937 736.022,345.604 734,348.5C 733.503,345.854 733.336,343.187 733.5,340.5 Z"/></g>
<g><path fill="#fef5e2" d="M 659.5,341.5 C 660.124,341.917 660.457,342.584 660.5,343.5C 651.25,377.502 643.416,411.835 637,446.5C 637.673,428.77 639.34,411.103 642,393.5C 646.156,377.876 650.156,362.209 654,346.5C 655.73,344.598 657.563,342.931 659.5,341.5 Z"/></g>
<g><path fill="#fef5e2" d="M 769.5,341.5 C 770.224,343.218 770.891,345.052 771.5,347C 770.167,347.667 768.833,347.667 767.5,347C 768.464,345.275 769.131,343.441 769.5,341.5 Z"/></g>
<g><path fill="#fef5e2" d="M 586.5,342.5 C 587.239,342.369 587.906,342.536 588.5,343C 587.518,345.738 586.852,348.572 586.5,351.5C 584.5,351.5 582.5,351.5 580.5,351.5C 580.692,347.212 582.692,344.212 586.5,342.5 Z"/></g>
<g><path fill="#fef5e2" d="M 836.5,344.5 C 839.525,348.705 842.192,353.205 844.5,358C 842.987,359.879 842.321,362.046 842.5,364.5C 839.728,366.434 837.895,365.767 837,362.5C 836.501,356.509 836.334,350.509 836.5,344.5 Z"/></g>
<g><path fill="#fef5e2" d="M 485.5,362.5 C 486.338,362.158 486.672,361.492 486.5,360.5C 487.167,360.5 487.5,360.167 487.5,359.5C 490.49,356.208 493.49,352.874 496.5,349.5C 497.167,349.5 497.5,349.167 497.5,348.5C 498.767,347.913 499.767,347.913 500.5,348.5C 497.711,357.451 492.211,364.118 484,368.5C 484.15,366.494 484.65,364.494 485.5,362.5 Z"/></g>
<g><path fill="#fef5e2" d="M 768.5,355.5 C 769.497,355.47 770.164,355.97 770.5,357C 774.519,366.22 774.352,375.387 770,384.5C 766.771,377.357 764.937,369.857 764.5,362C 765.713,359.738 767.046,357.571 768.5,355.5 Z"/></g>
<g><path fill="#fef5e2" d="M 551.5,356.5 C 553.028,356.517 553.528,357.184 553,358.5C 543.797,366.435 543.297,365.769 551.5,356.5 Z"/></g>
<g><path fill="#fef5e2" d="M 580.5,358.5 C 581.833,358.5 583.167,358.5 584.5,358.5C 584.628,360.655 584.128,362.655 583,364.5C 581.867,362.789 580.367,362.289 578.5,363C 577.359,366.039 575.859,368.873 574,371.5C 574.495,367.492 575.329,363.492 576.5,359.5C 578.099,359.768 579.432,359.434 580.5,358.5 Z"/></g>
<g><path fill="#fef5e2" d="M 565.5,363.5 C 565.171,374.606 561.004,384.273 553,392.5C 553.764,383.691 555.931,375.191 559.5,367C 561.727,366.059 563.727,364.892 565.5,363.5 Z"/></g>
<g><path fill="#fef5e2" d="M 828.5,365.5 C 829.29,370.505 829.957,375.672 830.5,381C 830.079,383.185 829.579,385.351 829,387.5C 828.5,380.174 828.334,372.841 828.5,365.5 Z"/></g>
<g><path fill="#fef5e2" d="M 496.5,371.5 C 497.712,373.264 497.379,374.93 495.5,376.5C 495.167,376.167 494.833,375.833 494.5,375.5C 495.63,374.378 496.297,373.044 496.5,371.5 Z"/></g>
<g><path fill="#fef5e2" d="M 701.5,373.5 C 702.634,375.966 702.801,378.633 702,381.5C 699.527,389.253 696.86,396.919 694,404.5C 695.703,394.019 698.203,383.685 701.5,373.5 Z"/></g>
<g><path fill="#fef5e2" d="M 573.5,381.5 C 574.124,381.917 574.457,382.584 574.5,383.5C 572.951,391.311 570.118,398.644 566,405.5C 564.795,404.929 563.628,404.262 562.5,403.5C 564.034,398.066 565.867,392.732 568,387.5C 570.04,385.63 571.873,383.63 573.5,381.5 Z"/></g>
<g><path fill="#fef5e2" d="M 618.5,382.5 C 617.18,392.632 615.347,402.966 613,413.5C 612.667,412.167 612.333,410.833 612,409.5C 610.365,408.274 608.865,406.941 607.5,405.5C 610.924,397.655 614.59,389.988 618.5,382.5 Z"/></g>
<g><path fill="#fef5e2" d="M 721.5,382.5 C 723.041,391.544 722.208,400.544 719,409.5C 719.427,400.487 720.26,391.487 721.5,382.5 Z"/></g>
<g><path fill="#fef5e2" d="M 820.5,382.5 C 822.134,389.867 821.634,397.2 819,404.5C 816.603,396.925 817.103,389.591 820.5,382.5 Z"/></g>
<g><path fill="#fef5e2" d="M 628.5,384.5 C 629.139,385.097 629.472,385.93 629.5,387C 626.046,404.375 623.38,421.709 621.5,439C 619.808,443.745 618.308,448.579 617,453.5C 615.989,454.337 614.822,454.67 613.5,454.5C 616.797,432.554 620.797,410.721 625.5,389C 626.008,387.107 627.008,385.607 628.5,384.5 Z"/></g>
<g><path fill="#fef5e2" d="M 758.5,385.5 C 759.748,386.334 760.415,387.667 760.5,389.5C 761.333,393.486 761.499,397.486 761,401.5C 758.456,400.79 757.289,399.124 757.5,396.5C 758.246,392.868 758.579,389.202 758.5,385.5 Z"/></g>
<g><path fill="#fef5e2" d="M 679.5,399.5 C 680.824,405.39 680.657,411.39 679,417.5C 678.425,411.478 678.591,405.478 679.5,399.5 Z"/></g>
<g><path fill="#fef5e2" d="M 857.5,399.5 C 858.695,399.866 859.361,400.699 859.5,402C 858.815,404.795 858.315,407.628 858,410.5C 857.501,406.848 857.335,403.182 857.5,399.5 Z"/></g>
<g><path fill="#fef5e2" d="M 755.5,407.5 C 758.857,408.173 761.524,409.839 763.5,412.5C 762,418.5 760.5,424.5 759,430.5C 758.667,426.5 758.333,422.5 758,418.5C 757.215,416.714 756.049,415.214 754.5,414C 755.423,411.959 755.756,409.792 755.5,407.5 Z"/></g>
<g><path fill="#fef5e2" d="M 549.5,410.5 C 550.043,410.56 550.376,410.893 550.5,411.5C 549.902,412.795 549.402,414.128 549,415.5C 548.36,413.735 548.527,412.068 549.5,410.5 Z"/></g>
<g><path fill="#fef5e2" d="M 560.5,411.5 C 562.975,411.747 562.975,412.413 560.5,413.5C 559.537,413.03 559.537,412.363 560.5,411.5 Z"/></g>
<g><path fill="#fef5e2" d="M 605.5,414.5 C 607.677,417.061 609.844,417.061 612,414.5C 609.195,433.866 605.862,453.2 602,472.5C 598.881,480.739 595.214,488.739 591,496.5C 595.932,469.242 600.766,441.909 605.5,414.5 Z"/></g>
<g><path fill="#fef5e2" d="M 866.5,417.5 C 868.927,420.584 868.927,423.75 866.5,427C 866.954,428.622 867.954,429.788 869.5,430.5C 870.657,433.784 870.824,437.118 870,440.5C 868.615,439.449 867.615,438.116 867,436.5C 866.33,432.989 865.163,429.656 863.5,426.5C 864.705,423.55 865.705,420.55 866.5,417.5 Z"/></g>
<g><path fill="#fef5e2" d="M 567.5,421.5 C 568.097,421.735 568.43,422.235 568.5,423C 567.545,428.473 566.711,433.973 566,439.5C 558.847,452.97 552.18,466.636 546,480.5C 544.829,479.107 543.329,478.273 541.5,478C 550.597,459.309 559.264,440.476 567.5,421.5 Z"/></g>
<g><path fill="#fef5e2" d="M 751.5,432.5 C 752.809,436.351 752.809,440.351 751.5,444.5C 750.387,440.507 750.387,436.507 751.5,432.5 Z"/></g>
<g><path fill="#fef5e2" d="M 727.5,449.5 C 728.709,451.435 728.542,453.435 727,455.5C 726.322,453.402 726.489,451.402 727.5,449.5 Z"/></g>
<g><path fill="#fef5e2" d="M 881.5,450.5 C 882.249,451.531 882.915,452.698 883.5,454C 882.628,463.813 881.461,473.646 880,483.5C 879.5,481 879,478.5 878.5,476C 880.138,467.401 881.138,458.901 881.5,450.5 Z"/></g>
<g><path fill="#fef5e2" d="M 863.5,451.5 C 867.047,459.379 868.547,467.712 868,476.5C 864.028,471.418 861.528,465.584 860.5,459C 861.093,456.317 862.093,453.817 863.5,451.5 Z"/></g>
<g><path fill="#fef5e2" d="M 455.5,455.5 C 457.968,457.842 458.134,460.508 456,463.5C 451.333,469.5 446.667,475.5 442,481.5C 444.626,471.916 449.126,463.25 455.5,455.5 Z"/></g>
<g><path fill="#fef5e2" d="M 776.5,457.5 C 777.738,465.989 778.238,474.655 778,483.5C 776.138,487.419 774.471,491.419 773,495.5C 773.727,488.517 774.727,481.517 776,474.5C 776.499,468.843 776.666,463.176 776.5,457.5 Z"/></g>
<g><path fill="#fef5e2" d="M 697.5,459.5 C 698.117,459.611 698.617,459.944 699,460.5C 697.313,482.521 695.146,504.521 692.5,526.5C 693.505,531.525 693.505,536.525 692.5,541.5C 686.882,542.662 681.216,543.162 675.5,543C 677.478,530.441 679.978,517.941 683,505.5C 683.904,510.461 686.237,511.461 690,508.5C 692.548,492.165 695.048,475.832 697.5,459.5 Z"/></g>
<g><path fill="#fef5e2" d="M 835.5,459.5 C 837.468,463.007 838.468,467.007 838.5,471.5C 837.833,478.5 837.167,485.5 836.5,492.5C 836.402,494.619 835.569,496.286 834,497.5C 832.175,484.757 832.675,472.09 835.5,459.5 Z"/></g>
<g><path fill="#fef5e2" d="M 576.5,462.5 C 577.043,462.56 577.376,462.893 577.5,463.5C 576.271,467.812 575.104,472.145 574,476.5C 573.25,475.874 572.416,475.374 571.5,475C 572.709,471.963 573.543,468.796 574,465.5C 575.045,464.627 575.878,463.627 576.5,462.5 Z"/></g>
<g><path fill="#fef5e2" d="M 807.5,471.5 C 809.065,477.094 810.065,482.927 810.5,489C 809.701,493.1 808.201,496.934 806,500.5C 806.673,490.895 807.173,481.229 807.5,471.5 Z"/></g>
<g><path fill="#fef5e2" d="M 526.5,472.5 C 528.604,472.201 530.604,472.534 532.5,473.5C 530.06,478.047 527.893,482.713 526,487.5C 525.913,482.512 526.08,477.512 526.5,472.5 Z"/></g>
<g><path fill="#fef5e2" d="M 610.5,472.5 C 611.097,472.735 611.43,473.235 611.5,474C 610.597,476.877 609.597,479.71 608.5,482.5C 608.167,482.167 607.833,481.833 607.5,481.5C 608.35,478.427 609.35,475.427 610.5,472.5 Z"/></g>
<g><path fill="#fef5e2" d="M 725.5,474.5 C 725.57,479.191 724.403,483.858 722,488.5C 721.956,483.563 723.122,478.896 725.5,474.5 Z"/></g>
<g><path fill="#fef5e2" d="M 659.5,478.5 C 660.219,480.091 661.219,481.591 662.5,483C 659.959,493.218 657.626,503.385 655.5,513.5C 656.834,501.831 658.167,490.164 659.5,478.5 Z"/></g>
<g><path fill="#fef5e2" d="M 636.5,484.5 C 637.124,484.917 637.457,485.584 637.5,486.5C 636.603,490.486 635.769,494.486 635,498.5C 633.989,493.529 634.489,488.863 636.5,484.5 Z"/></g>
<g><path fill="#fef5e2" d="M 742.5,486.5 C 743.239,486.369 743.906,486.536 744.5,487C 743.118,491.705 742.451,491.539 742.5,486.5 Z"/></g>
<g><path fill="#fef5e2" d="M 569.5,489.5 C 571.022,501.349 572.355,513.516 573.5,526C 568.81,530.606 565.644,529.44 564,522.5C 563.833,520.833 563.667,519.167 563.5,517.5C 565.187,508.088 567.187,498.755 569.5,489.5 Z"/></g>
<g><path fill="#fef5e2" d="M 726.5,497.5 C 728.189,498.931 730.189,499.764 732.5,500C 733.081,500.893 733.415,501.893 733.5,503C 731.977,510.779 731.477,518.612 732,526.5C 734.966,529.265 737.633,528.932 740,525.5C 743.83,512.353 745.497,513.02 745,527.5C 746.6,528.866 748.433,529.866 750.5,530.5C 749.626,532.747 749.292,535.08 749.5,537.5C 735.184,535.058 720.851,532.725 706.5,530.5C 706.761,524.743 707.594,519.077 709,513.5C 709.739,514.574 710.739,515.241 712,515.5C 714.248,513.586 716.748,512.086 719.5,511C 723.022,507.122 725.356,502.622 726.5,497.5 Z"/></g>
<g><path fill="#fef5e2" d="M 604.5,501.5 C 606.677,504.061 608.844,504.061 611,501.5C 609.901,517.831 608.401,534.165 606.5,550.5C 588.811,550.118 571.144,549.285 553.5,548C 554.861,546.416 555.528,544.582 555.5,542.5C 557.39,542.703 558.89,542.037 560,540.5C 560.822,538.212 561.489,535.878 562,533.5C 566.076,537.034 570.409,537.367 575,534.5C 576.808,536.396 578.975,536.896 581.5,536C 586.174,531.654 589.674,526.487 592,520.5C 591.956,526.731 591.123,532.898 589.5,539C 591.503,544.77 594.003,544.937 597,539.5C 599.183,526.728 601.683,514.061 604.5,501.5 Z"/></g>
<g><path fill="#fef5e2" d="M 583.5,506.5 C 585.646,506.696 585.812,507.696 584,509.5C 583.517,508.552 583.351,507.552 583.5,506.5 Z"/></g>
<g><path fill="#fef5e2" d="M 526.5,509.5 C 526.594,522.452 525.26,535.452 522.5,548.5C 520.278,548.822 518.444,548.155 517,546.5C 516.333,541.833 516.333,537.167 517,532.5C 520.25,524.929 523.417,517.262 526.5,509.5 Z"/></g>
<g><path fill="#fef5e2" d="M 509.5,510.5 C 510.638,513.304 510.805,516.304 510,519.5C 508.607,523.286 506.941,526.952 505,530.5C 504.333,528.833 504.333,527.167 505,525.5C 506.81,520.571 508.31,515.571 509.5,510.5 Z"/></g>
<g><path fill="#fef5e2" d="M 654.5,520.5 C 652.556,530.821 651.056,541.154 650,551.5C 652.333,554.167 654.667,554.167 657,551.5C 658.784,539.464 660.784,527.464 663,515.5C 663.419,514.328 664.085,513.328 665,512.5C 665.765,523.063 666.598,533.563 667.5,544C 665.913,544.862 664.246,545.529 662.5,546C 659.833,548 659.833,550 662.5,552C 664.473,552.495 666.473,552.662 668.5,552.5C 668.293,555.127 669.46,556.793 672,557.5C 675.044,556.219 676.21,553.885 675.5,550.5C 678.909,550.751 682.242,550.417 685.5,549.5C 688.08,551.994 690.747,551.994 693.5,549.5C 694.929,550.935 696.595,551.935 698.5,552.5C 700.927,551.144 703.261,549.644 705.5,548C 720.167,547.333 734.833,547.333 749.5,548C 750.459,549.464 751.792,550.297 753.5,550.5C 755.786,548.562 758.453,547.562 761.5,547.5C 770.175,548.501 778.842,549.501 787.5,550.5C 777.756,624.788 768.256,699.121 759,773.5C 756.19,799.039 751.023,824.039 743.5,848.5C 726.447,860.861 707.781,870.361 687.5,877C 682.039,877.919 676.539,878.419 671,878.5C 640.441,876.258 612.274,866.925 586.5,850.5C 585.738,848.738 584.404,847.738 582.5,847.5C 571.285,839.961 560.618,831.628 550.5,822.5C 548.167,819.5 545.5,816.833 542.5,814.5C 541.5,812.833 540.167,811.5 538.5,810.5C 536.157,807.793 533.823,805.126 531.5,802.5C 531.5,801.833 531.167,801.5 530.5,801.5C 528.5,798.833 526.167,796.5 523.5,794.5C 523.167,793.5 522.5,792.833 521.5,792.5C 517.91,787.064 514.077,781.73 510,776.5C 509.536,777.094 509.369,777.761 509.5,778.5C 506.939,776.36 504.605,774.027 502.5,771.5C 504.982,720.736 508.815,670.07 514,619.5C 517.283,602.083 520.95,584.75 525,567.5C 526.381,563.346 527.881,559.346 529.5,555.5C 554.854,555.667 580.188,556.501 605.5,558C 606.459,559.464 607.792,560.297 609.5,560.5C 611.745,559.076 614.245,558.41 617,558.5C 623.817,559.478 630.65,559.645 637.5,559C 640.167,557 640.167,555 637.5,553C 629.841,552.321 622.174,551.821 614.5,551.5C 615.27,540.464 616.437,529.464 618,518.5C 619.786,521.362 622.119,522.028 625,520.5C 625.093,528.028 624.593,535.528 623.5,543C 625.313,546.911 627.813,547.411 631,544.5C 631.126,537.726 631.959,531.06 633.5,524.5C 634.814,523.687 635.981,522.687 637,521.5C 636.631,524.79 636.631,528.123 637,531.5C 639,534.167 641,534.167 643,531.5C 644.548,524.877 645.882,518.211 647,511.5C 647.278,515.194 647.278,518.861 647,522.5C 650.289,525.241 652.789,524.575 654.5,520.5 Z"/></g>
<g><path fill="#fef5e2" d="M 775.5,511.5 C 775.585,515.62 775.751,519.953 776,524.5C 778,527.167 780,527.167 782,524.5C 783.308,521.27 784.308,517.936 785,514.5C 784.974,518.305 786.808,520.305 790.5,520.5C 790.229,527.879 789.562,535.212 788.5,542.5C 780.192,541.657 771.859,540.99 763.5,540.5C 766.683,530.471 770.683,520.804 775.5,511.5 Z"/></g>
<g><path fill="#fef5e2" d="M 760.5,517.5 C 763.998,517.565 764.498,518.899 762,521.5C 760.812,520.437 760.312,519.103 760.5,517.5 Z"/></g>
<g><path fill="#fef5e2" d="M 546.5,519.5 C 546.269,528.887 546.269,538.387 546.5,548C 541.177,548.499 535.844,548.666 530.5,548.5C 530.581,543.838 531.748,539.505 534,535.5C 536.333,538.167 538.667,538.167 541,535.5C 543.141,530.244 544.974,524.91 546.5,519.5 Z"/></g>
<g><path fill="#fef5e2" d="M 813.5,519.5 C 814.117,519.611 814.617,519.944 815,520.5C 815.351,525.198 815.851,529.864 816.5,534.5C 811.239,534.953 808.739,537.953 809,543.5C 808.333,540.833 808.333,538.167 809,535.5C 810.609,530.177 812.109,524.844 813.5,519.5 Z"/></g>
<g><path fill="#fef5e2" d="M 447.5,529.5 C 448.533,532.857 450.866,534.857 454.5,535.5C 451.839,543.827 448.339,551.827 444,559.5C 443.221,549.221 444.388,539.221 447.5,529.5 Z"/></g>
<g><path fill="#fef5e2" d="M 705.5,537.5 C 710.173,538.223 714.84,539.057 719.5,540C 714.5,540.667 709.5,540.667 704.5,540C 705.252,539.329 705.586,538.496 705.5,537.5 Z"/></g>
<g><path fill="#fef5e2" d="M 834.5,555.5 C 837.164,558.449 836.998,561.449 834,564.5C 833.699,561.493 833.865,558.493 834.5,555.5 Z"/></g>
<g><path fill="#fef5e2" d="M 793.5,556.5 C 794.117,556.611 794.617,556.944 795,557.5C 795.143,569.501 794.81,581.501 794,593.5C 790.509,608.465 787.175,623.465 784,638.5C 786.74,611.149 789.907,583.815 793.5,556.5 Z"/></g>
<g><path fill="#fef5e2" d="M 502.5,563.5 C 503.152,564.449 503.486,565.615 503.5,567C 500.573,586.486 497.74,605.986 495,625.5C 495.932,604.614 498.432,583.947 502.5,563.5 Z"/></g>
<g><path fill="#fef5e2" d="M 445.5,629.5 C 444.394,620.996 443.061,612.662 441.5,604.5C 444.031,596.741 446.865,589.075 450,581.5C 449.421,597.707 447.921,613.707 445.5,629.5 Z"/></g>
<g><path fill="#000000" d="M 544.5,587.5 C 547.585,587.418 549.252,588.918 549.5,592C 547.869,597.892 546.036,603.725 544,609.5C 540.182,612.498 538.016,611.498 537.5,606.5C 538.862,599.742 541.195,593.409 544.5,587.5 Z"/></g>
<g><path fill="#000000" d="M 568.5,596.5 C 572,596.495 573.5,598.162 573,601.5C 569.167,605.333 565.333,609.167 561.5,613C 556.61,613.035 555.443,610.868 558,606.5C 561.396,602.935 564.896,599.602 568.5,596.5 Z"/></g>
<g><path fill="#000000" d="M 692.5,597.5 C 694.39,597.297 695.89,597.963 697,599.5C 697.699,605.175 698.032,610.842 698,616.5C 694.237,619.461 691.904,618.461 691,613.5C 689.946,607.886 690.446,602.552 692.5,597.5 Z"/></g>
<g><path fill="#fef5e2" d="M 868.5,598.5 C 869.873,598.343 871.207,598.51 872.5,599C 869.134,614.16 865.634,629.326 862,644.5C 862.109,637.857 862.442,631.19 863,624.5C 865.155,615.883 866.988,607.216 868.5,598.5 Z"/></g>
<g><path fill="#000000" d="M 760.5,600.5 C 764.487,600.652 765.987,602.652 765,606.5C 759.173,611.316 754.506,616.983 751,623.5C 747.509,626.446 745.342,625.612 744.5,621C 744.625,619.373 745.125,617.873 746,616.5C 750.671,610.997 755.504,605.664 760.5,600.5 Z"/></g>
<g><path fill="#000000" d="M 593.5,601.5 C 597.487,601.652 598.987,603.652 598,607.5C 591.91,610.958 586.744,615.458 582.5,621C 579.875,621.723 578.208,620.723 577.5,618C 578.196,616.107 579.03,614.274 580,612.5C 584.112,608.216 588.612,604.549 593.5,601.5 Z"/></g>
<g><path fill="#fef5e2" d="M 485.5,602.5 C 486.162,604.304 486.495,606.304 486.5,608.5C 485.777,617.843 484.944,627.177 484,636.5C 483.429,625.12 483.929,613.786 485.5,602.5 Z"/></g>
<g><path fill="#000000" d="M 727.5,603.5 C 731.509,603.014 733.342,604.68 733,608.5C 727.754,613.075 723.254,618.242 719.5,624C 715.023,624.165 713.523,621.998 715,617.5C 719.003,612.665 723.17,607.998 727.5,603.5 Z"/></g>
<g><path fill="#fef5e2" d="M 485.5,746.5 C 484.833,745.833 484.167,745.167 483.5,744.5C 490.696,703.631 497.196,662.631 503,621.5C 502.999,631.522 502.332,641.522 501,651.5C 496.667,681.167 492.333,710.833 488,740.5C 487.963,742.974 487.13,744.974 485.5,746.5 Z"/></g>
<g><path fill="#094400" d="M 544.5,628.5 C 552.129,627.941 558.629,630.274 564,635.5C 566.973,642.214 565.473,647.714 559.5,652C 552.05,654.053 545.884,652.22 541,646.5C 539.801,643.982 538.635,641.482 537.5,639C 539.605,635.386 541.939,631.886 544.5,628.5 Z"/></g>
<g><path fill="#094400" d="M 721.5,634.5 C 728.303,634.3 731.969,637.633 732.5,644.5C 732.216,650.898 729.883,656.398 725.5,661C 719.306,662.711 714.14,661.211 710,656.5C 708.665,653.087 706.832,650.087 704.5,647.5C 707.466,644.038 709.799,640.205 711.5,636C 713.035,635.504 714.535,635.67 716,636.5C 718.03,636.046 719.863,635.38 721.5,634.5 Z"/></g>
<g><path fill="#fef5e2" d="M 550.5,644.5 C 549.504,644.586 548.671,644.252 548,643.5C 546.497,638.301 548.33,636.135 553.5,637C 558.637,638.238 559.637,640.905 556.5,645C 554.288,645.789 552.288,645.622 550.5,644.5 Z"/></g>
<g><path fill="#094400" d="M 550.5,644.5 C 547.692,642.084 548.025,640.084 551.5,638.5C 555.531,641.126 555.197,643.126 550.5,644.5 Z"/></g>
<g><path fill="#fef5e2" d="M 491.5,639.5 C 492.152,640.449 492.486,641.615 492.5,643C 491.054,652.842 489.554,662.675 488,672.5C 488.4,661.402 489.567,650.402 491.5,639.5 Z"/></g>
<g><path fill="#fef5e2" d="M 720.5,642.5 C 721.833,642.5 723.167,642.5 724.5,642.5C 724.761,646.342 724.094,650.009 722.5,653.5C 718.432,655.055 716.266,653.722 716,649.5C 717.667,652.167 719.333,652.167 721,649.5C 721.507,648.004 721.007,646.837 719.5,646C 718.262,646.077 717.262,645.911 716.5,645.5C 717.901,644.479 719.235,643.479 720.5,642.5 Z"/></g>
<g><path fill="#fef5e2" d="M 860.5,646.5 C 861.097,646.735 861.43,647.235 861.5,648C 860.73,651.249 859.73,654.415 858.5,657.5C 857.692,657.192 857.025,656.692 856.5,656C 857.606,652.731 858.94,649.564 860.5,646.5 Z"/></g>
<g><path fill="#fef5e2" d="M 870.5,672.5 C 869.662,672.842 869.328,673.508 869.5,674.5C 867.9,676.703 866.567,679.036 865.5,681.5C 866.212,673.346 867.712,665.346 870,657.5C 870.499,662.489 870.666,667.489 870.5,672.5 Z"/></g>
<g><path fill="#fef5e2" d="M 844.5,723.5 C 843.833,723.833 843.167,724.167 842.5,724.5C 843.632,714.927 844.299,714.594 844.5,723.5 Z"/></g>
<g><path fill="#000000" d="M 635.5,718.5 C 639.589,719.598 640.423,721.932 638,725.5C 635.501,736.763 639.668,740.93 650.5,738C 653.925,735.715 654.425,732.882 652,729.5C 650.445,727.557 649.278,725.39 648.5,723C 649.653,719.323 651.486,718.823 654,721.5C 662.68,731.434 661.18,739.267 649.5,745C 637.957,746.952 631.957,742.119 631.5,730.5C 630.775,725.73 632.109,721.73 635.5,718.5 Z"/></g>
<g><path fill="#fef5e2" d="M 782.5,731.5 C 783.161,733.134 783.494,734.967 783.5,737C 782.667,747.167 781.833,757.333 781,767.5C 778.667,777.5 776.333,787.5 774,797.5C 775.568,775.355 778.401,753.355 782.5,731.5 Z"/></g>
<g><path fill="#fef5e2" d="M 803.5,734.5 C 804.147,735.274 804.48,736.274 804.5,737.5C 803.953,740.826 803.453,744.16 803,747.5C 802.466,743.141 802.632,738.808 803.5,734.5 Z"/></g>
<g><path fill="#fef5e2" d="M 794.5,797.5 C 791.5,800.833 788.5,804.167 785.5,807.5C 788.373,794.008 791.873,780.675 796,767.5C 797.011,768.337 798.178,768.67 799.5,768.5C 797.941,778.186 796.275,787.853 794.5,797.5 Z"/></g>
<g><path fill="#000000" d="M 686.5,801.5 C 690.007,800.994 693.174,801.66 696,803.5C 696.542,808.292 694.375,810.458 689.5,810C 687.649,808.316 685.982,806.483 684.5,804.5C 685.193,803.482 685.859,802.482 686.5,801.5 Z"/></g>
<g><path fill="#fef5e2" d="M 761.5,833.5 C 760.5,834.167 759.5,834.833 758.5,835.5C 759.373,825.337 761.207,815.337 764,805.5C 763.647,814.85 762.814,824.183 761.5,833.5 Z"/></g>
<g><path fill="#fe0000" d="M 665.5,903.5 C 666.289,903.783 666.956,904.283 667.5,905C 666.751,906.734 666.251,908.567 666,910.5C 665.503,908.19 665.337,905.857 665.5,903.5 Z"/></g>
<g><path fill="#fe0000" d="M 651.5,928.5 C 652.652,924.893 653.652,921.227 654.5,917.5C 655.072,916.027 655.905,914.693 657,913.5C 657.726,921.267 656.226,928.601 652.5,935.5C 651.526,933.257 651.192,930.924 651.5,928.5 Z"/></g>
<g><path fill="#fe0000" d="M 660.5,978.5 C 658.629,978.141 657.129,977.141 656,975.5C 655.502,972.518 655.335,969.518 655.5,966.5C 656.714,963.07 658.214,959.736 660,956.5C 660.301,962.52 660.801,968.52 661.5,974.5C 661.377,975.925 661.043,977.258 660.5,978.5 Z"/></g>
</svg>
